<svg width="220" height="30" viewBox="0 0 220 30" fill="none" xmlns="http://www.w3.org/2000/svg">
<path d="M7.74908 29.4889V9.63303H0V5.89777H7.74908C7.7757 4.87549 8.01537 3.99737 8.46807 3.26344C8.94739 2.50327 9.73294 1.88729 10.8247 1.41547C11.9165 0.943644 13.3945 0.589778 15.2585 0.353867C17.1225 0.117955 19.4393 0 22.2087 0H35.9493V3.42071H22.8079C21.7428 3.42071 20.997 3.6173 20.571 4.01049C20.145 4.37747 19.9319 4.96724 19.9319 5.77982V5.89777H35.9493V9.63303H19.9319V29.4889H7.74908ZM68.5694 30H56.5863C52.7782 30 49.6093 29.7773 47.0797 29.3316C44.5764 28.8598 42.5792 28.1782 41.0881 27.287C39.6234 26.3695 38.5982 25.2425 38.0124 23.9056C37.4265 22.5427 37.1337 20.9829 37.1337 19.2267V16.1599C37.1337 14.4037 37.4265 12.8571 38.0124 11.5203C38.5982 10.1573 39.6234 9.03014 41.0881 8.13893C42.5792 7.22149 44.5764 6.53998 47.0797 6.09437C49.6093 5.62255 52.7782 5.38663 56.5863 5.38663H68.5694C72.3772 5.38663 75.5328 5.62255 78.036 6.09437C80.5657 6.53998 82.5629 7.22149 84.0276 8.13893C85.5187 9.03014 86.5572 10.1573 87.1432 11.5203C87.729 12.8571 88.022 14.4037 88.022 16.1599V19.2267C88.022 20.9829 87.729 22.5427 87.1432 23.9056C86.5572 25.2425 85.5187 26.3695 84.0276 27.287C82.5629 28.1782 80.5657 28.8598 78.036 29.3316C75.5328 29.7773 72.3772 30 68.5694 30ZM56.4664 26.2647H68.6892C71.0059 26.2647 72.6436 25.7798 73.6023 24.81C74.5609 23.8402 75.0403 22.2936 75.0403 20.1704V15.1769C75.0403 13.0799 74.5609 11.5465 73.6023 10.5767C72.6436 9.60682 71.0059 9.12189 68.6892 9.12189H56.4664C54.1497 9.12189 52.512 9.60682 51.5533 10.5767C50.5947 11.5465 50.1154 13.0799 50.1154 15.1769V20.1704C50.1154 22.2936 50.5947 23.8402 51.5533 24.81C52.512 25.7798 54.1497 26.2647 56.4664 26.2647ZM93.8054 13.4862C93.8054 12.3329 94.0051 11.2975 94.4046 10.3801C94.8306 9.43644 95.5895 8.63695 96.6814 7.98165C97.7998 7.32635 99.3176 6.81521 101.235 6.44823C103.179 6.08125 105.642 5.89777 108.625 5.89777H123.603V9.63303H113.178C110.515 9.63303 108.651 9.93446 107.586 10.5374C106.521 11.1402 105.988 12.1887 105.988 13.6828V29.4889H93.8054V13.4862ZM170.994 29.4889H132.169C130.012 29.4889 128.454 29.1611 127.496 28.5059C126.564 27.8243 126.098 26.9332 126.098 25.8322C126.098 24.81 126.497 23.9056 127.296 23.1193C128.095 22.3329 129.613 21.494 131.85 20.6029L154.737 11.363C155.03 11.2582 155.257 11.1402 155.416 11.0092C155.576 10.8781 155.656 10.6815 155.656 10.4194C155.656 10.1311 155.536 9.93447 155.297 9.82962C155.083 9.69855 154.79 9.63303 154.418 9.63303H126.497V5.89777H164.364C166.574 5.89777 168.265 6.15989 169.437 6.68414C170.635 7.2084 171.234 8.13893 171.234 9.47576C171.234 10.5505 170.755 11.481 169.796 12.2674C168.864 13.0537 167.293 13.9056 165.083 14.8231L142.315 24.2202C141.995 24.3513 141.742 24.4822 141.556 24.6134C141.369 24.7445 141.276 24.9018 141.276 25.0852C141.276 25.3473 141.383 25.5309 141.596 25.6356C141.836 25.7143 142.128 25.7536 142.475 25.7536H170.994V29.4889ZM202.585 5.89777C206.153 5.89777 209.069 6.05505 211.332 6.3696C213.595 6.68414 215.367 7.16908 216.645 7.82438C217.923 8.45348 218.802 9.25296 219.281 10.2228C219.76 11.1927 220 12.3329 220 13.6435V29.4889H186.287C184.131 29.4889 182.32 29.3841 180.855 29.1743C179.417 28.9384 178.272 28.6107 177.42 28.1914C176.568 27.772 175.969 27.2477 175.622 26.6186C175.276 25.9634 175.103 25.2293 175.103 24.4168C175.103 23.1324 175.782 21.9529 177.14 20.8781C178.498 19.8033 180.589 18.7549 183.412 17.7326L205.341 9.7903C204.781 9.73787 204.102 9.69855 203.303 9.67235C202.505 9.64614 201.546 9.63303 200.428 9.63303H175.862V5.89777H202.585ZM193.557 25.7536H208.017V13.2503C208.017 13.1455 208.017 13.0537 208.017 12.9751C208.017 12.8703 208.017 12.7785 208.017 12.6999L192.918 18.519C191.507 19.0695 190.508 19.6724 189.922 20.3277C189.363 20.9568 189.084 21.717 189.084 22.6081C189.084 23.5779 189.43 24.3513 190.122 24.9279C190.841 25.4784 191.986 25.7536 193.557 25.7536Z" fill="white"/>
</svg>
