<svg width="380" height="120" viewBox="0 0 380 120" fill="none" xmlns="http://www.w3.org/2000/svg">
<path d="M58 8L190 85L322 8L309 38.5L380 11.3918L319.612 28.0412L328 0L190 67.5L52 0L60.3876 28.0412L0 11.3918L71 38.5L58 8Z" fill="#292929"/>
<path d="M190 90L193.368 100.365H204.266L195.449 106.771L198.817 117.135L190 110.729L181.183 117.135L184.551 106.771L175.734 100.365H186.632L190 90Z" fill="#292929"/>
<path d="M144.5 67L147.306 75.6373H156.388L149.041 80.9754L151.847 89.6127L144.5 84.2746L137.153 89.6127L139.959 80.9754L132.612 75.6373H141.694L144.5 67Z" fill="#292929"/>
<path d="M235.5 67L238.306 75.6373H247.388L240.041 80.9754L242.847 89.6127L235.5 84.2746L228.153 89.6127L230.959 80.9754L223.612 75.6373H232.694L235.5 67Z" fill="#292929"/>
</svg>
