<svg width="178" height="85" viewBox="0 0 178 85" fill="none" xmlns="http://www.w3.org/2000/svg">
<path fill-rule="evenodd" clip-rule="evenodd" d="M72 0V4.73798C72.0212 5.59778 72.2075 6.23446 72.9397 7.01444L84.9499 19.0739L88.5067 16.5733L72 0ZM73.069 2.59126L86.8499 16.4278L85.0714 17.678L73.6955 6.25564C73.381 5.94742 73.0887 5.54824 73.069 4.73798V2.59126Z" fill="white"/>
<path fill-rule="evenodd" clip-rule="evenodd" d="M72 7.58984V12.3278C72.0253 13.0953 72.1923 13.8586 72.9393 14.6047L77.8416 19.5269C78.4495 20.1096 79.1702 20.4878 80.1093 20.4699H84.8282L72 7.58984ZM73.069 10.1811L82.2473 19.3966H80.1093C79.451 19.3917 78.9898 19.1254 78.5978 18.7676L73.6952 13.8457C73.3166 13.4802 73.0838 12.9941 73.069 12.3278V10.1811Z" fill="white"/>
<path fill-rule="evenodd" clip-rule="evenodd" d="M96.6545 2.11927e-05C95.7969 -0.00250355 94.9738 0.220355 94.2018 0.776466L82.4873 9.01215L85.5576 12.0948L102.761 2.11927e-05H96.6545ZM96.6545 1.07338H99.3709L85.6792 10.699L84.1441 9.15766L94.8151 1.65583C95.3005 1.32493 95.8505 1.06311 96.6545 1.07338Z" fill="white"/>
<path fill-rule="evenodd" clip-rule="evenodd" d="M105.974 0C104.977 0.021318 104.177 0.30395 103.522 0.776609L86.3262 12.8655L89.3964 15.9482L112.081 0H105.974ZM105.974 1.07336H108.691L89.5181 14.5524L87.983 13.011L104.135 1.65581C104.822 1.21551 105.416 1.08562 105.974 1.07336Z" fill="white"/>
<path fill-rule="evenodd" clip-rule="evenodd" d="M104.497 7.58984C103.611 7.58984 102.791 7.8421 102.045 8.36654L84.8281 20.4699H90.935C91.9239 20.454 92.6928 20.1262 93.3874 19.6933L110.604 7.58984H104.497ZM104.497 8.6632H107.213L92.7744 18.8142C92.2132 19.1663 91.7792 19.3982 90.935 19.3966H88.2186L102.658 9.24566C103.256 8.88296 103.575 8.68708 104.497 8.6632Z" fill="white"/>
<path d="M85.0133 40.8937C83.7259 40.8937 83.107 39.9725 83.4302 38.9069C84.0974 36.6982 88.3846 33.4253 91.3062 33.4253C93.4367 33.4253 93.2745 35.1995 92.0255 36.7128L91.3352 37.424C88.859 39.6855 86.5635 40.8937 85.0133 40.8937ZM95.4556 26C91.727 26.0013 87.621 28.1243 85.0423 30.1348L85.2459 30.4095C89.2485 27.7982 94.8023 26.1003 96.3333 28.6471C97.1418 29.9906 95.7695 32.7041 93.8369 34.8486C94.299 33.9015 93.9938 32.0831 91.299 32.0831C86.8192 32.0831 78 37.6062 78 43.2587C78 45.5228 79.6877 47 82.4676 47C89.9087 47 100 35.6482 100 29.9467C100 27.9327 98.7551 26 95.4556 26Z" fill="white"/>
<path d="M74.1244 57.6166C74.0085 57.3812 73.7017 57.1897 73.4417 57.1897H72.9129C72.6539 57.1897 72.3497 57.3839 72.2374 57.6211L68.0469 66.4809C67.9302 66.7154 68.0567 66.8828 68.3166 66.8828H69.2849C69.6669 66.8828 69.842 66.7074 69.9454 66.4917C70.0498 66.276 70.2797 65.8071 70.3239 65.7122C70.3831 65.5824 70.5679 65.5037 70.827 65.5037L75.3358 65.5064C75.5957 65.5072 75.7629 65.5565 75.8398 65.7122C75.8902 65.8133 76.1201 66.2348 76.2333 66.4648C76.3473 66.6948 76.5392 66.8837 76.9115 66.8837H78.3166C78.5765 66.8837 78.6897 66.6841 78.5969 66.4988C78.5049 66.3118 74.1244 57.6166 74.1244 57.6166ZM71.4769 64.1344C71.217 64.1344 71.0949 63.9384 71.2046 63.7013L72.8555 60.1215C72.9651 59.8835 73.1428 59.8844 73.2498 60.1233L74.8574 63.7031C74.9644 63.942 74.8397 64.1371 74.5806 64.1371L71.4769 64.1344ZM106.503 57.6846V66.4747C106.503 66.7163 106.715 66.8828 106.975 66.8828H108.12C108.38 66.8828 108.592 66.7154 108.592 66.4523V57.6676C108.592 57.4045 108.424 57.1897 108.165 57.1897H106.975C106.716 57.1888 106.503 57.3508 106.503 57.6846ZM87.3146 63.1903C87.1652 62.9755 87.2474 62.7374 87.4959 62.6623C87.4959 62.6623 88.4854 62.3624 88.9593 61.9329C89.4333 61.5015 89.6711 60.8795 89.6711 60.0687C89.6711 59.538 89.5792 59.0924 89.397 58.7299C89.2149 58.3684 88.9531 58.0721 88.6127 57.8457C88.2723 57.6184 87.8655 57.451 87.3907 57.3463C86.9158 57.2425 86.2748 57.2121 86.2748 57.2121C86.0148 57.2005 85.5904 57.1906 85.3313 57.1906H80.5758C80.3167 57.1906 80.1036 57.4054 80.1036 57.6685V66.4532C80.1036 66.7163 80.3158 66.8837 80.5758 66.8837H81.7014C81.9614 66.8837 82.1736 66.7163 82.1736 66.4532C82.1736 66.4532 82.1745 62.9594 82.1763 62.9594C82.1781 62.9594 82.1798 62.9576 82.1798 62.9549C82.1798 62.9522 84.3126 62.9495 84.3126 62.9495C84.5717 62.9495 84.9068 63.1249 85.0572 63.3406L87.2713 66.4962C87.4773 66.7754 87.6728 66.8846 87.9327 66.8846H89.4032C89.6632 66.8846 89.7039 66.6367 89.6137 66.5078C89.5252 66.378 87.3146 63.1903 87.3146 63.1903ZM86.4189 61.4058C86.1271 61.4738 85.799 61.4872 85.799 61.4872C85.54 61.4988 85.1155 61.5078 84.8555 61.5078H82.6511C82.3912 61.5078 82.1789 61.293 82.1789 61.0299V59.2499C82.1789 58.9868 82.3912 58.772 82.6511 58.772H84.8555C85.1155 58.772 85.54 58.7818 85.799 58.7926C85.799 58.7926 86.1271 58.806 86.4189 58.874C86.7107 58.942 86.9415 59.0369 87.1104 59.1595C87.2801 59.283 87.4013 59.428 87.4747 59.5935C87.5472 59.76 87.5834 59.9408 87.5834 60.1385C87.5834 60.3354 87.5463 60.5171 87.4747 60.6836C87.4013 60.85 87.2801 60.995 87.1104 61.1176C86.9415 61.2429 86.7107 61.3386 86.4189 61.4058ZM120.562 57.1888C120.302 57.1888 120.093 57.3624 120.093 57.6148L120.095 63.2341C120.095 63.4972 119.949 63.5572 119.768 63.3684L114.209 57.5325C114.029 57.3437 113.764 57.1888 113.409 57.1888H112.364C112.035 57.1888 111.89 57.366 111.89 57.5459V66.5311C111.89 66.71 112.059 66.881 112.319 66.881H113.366C113.625 66.881 113.807 66.7378 113.807 66.4962C113.807 66.3744 113.813 60.5762 113.813 60.5762C113.813 60.313 113.96 60.2531 114.139 60.4428L119.935 66.5418C120.119 66.7279 120.343 66.8801 120.741 66.8801H121.528C121.788 66.8801 122 66.6653 122 66.4022V57.664C122 57.4009 121.788 57.1861 121.528 57.1861H120.562V57.1888ZM97.8964 62.6685C97.7699 62.8985 97.563 62.8976 97.4383 62.6676L94.7211 57.6175C94.6052 57.383 94.3691 57.1906 94.0384 57.1906H92.5644C92.3044 57.1906 92.0922 57.4054 92.0922 57.6685V66.4425C92.0922 66.7047 92.2629 66.8846 92.5644 66.8846H93.4805C93.7404 66.8846 93.9279 66.719 93.9279 66.4648C93.9279 66.3431 93.9314 60.0839 93.9412 60.0839C93.9509 60.0839 97.3331 66.463 97.3331 66.463C97.4551 66.6948 97.7558 66.6957 97.8814 66.4648C97.8814 66.4648 101.291 60.1018 101.301 60.1018C101.311 60.1018 101.308 66.2823 101.308 66.4648C101.308 66.7181 101.509 66.8846 101.768 66.8846H102.823C103.083 66.8846 103.296 66.7539 103.296 66.4067V57.6685C103.296 57.4054 103.083 57.1906 102.823 57.1906H101.41C101.05 57.1906 100.833 57.3768 100.704 57.605L97.8964 62.6685ZM56 62.0268C56 66.7602 60.7838 67 61.7432 67C64.9176 67 66.259 66.1319 66.3147 66.0943C66.5137 65.9807 66.7551 65.7516 66.7551 65.322V62.0555C66.7551 61.7548 66.5128 61.5096 66.2157 61.5096H62.2277C61.9297 61.5096 61.7343 61.7548 61.7343 62.0555V62.3938C61.7343 62.6954 61.9297 62.9415 62.2277 62.9415H64.5347C64.7576 62.9415 64.9379 63.1249 64.9379 63.3496C64.9379 63.3496 64.9353 64.7815 64.9353 64.8727C64.4799 65.0616 62.4037 65.6746 60.736 65.2719C58.3167 64.6866 58.1284 62.6658 58.1284 62.0609C58.1284 61.5534 58.2787 59.0091 61.2498 58.7514C63.6549 58.5429 65.2386 59.5255 65.2545 59.5353C65.5375 59.6839 65.8301 59.5783 65.9875 59.2749C65.9884 59.2722 66.2873 58.6592 66.2873 58.6592C66.412 58.4068 66.3704 58.1455 66.0654 57.937C66.045 57.9254 64.3588 57 61.7432 57C56.1609 57.0009 56 61.5132 56 62.0268Z" fill="white"/>
<path d="M1.59234 84.8637V79.5688H0V78.5727H1.59234C1.59781 78.3001 1.64706 78.066 1.74008 77.8702C1.83858 77.6675 2 77.5033 2.22435 77.3775C2.4487 77.2516 2.75239 77.1573 3.13543 77.0944C3.51846 77.0315 3.99452 77 4.56361 77H7.38713V77.9122H4.68673C4.46786 77.9122 4.31462 77.9646 4.22708 78.0695C4.13955 78.1673 4.09576 78.3246 4.09576 78.5413V78.5727H7.38713V79.5688H4.09576V84.8637H1.59234ZM14.0901 85H11.6278C10.8453 85 10.1941 84.9406 9.67427 84.8218C9.15988 84.6959 8.74949 84.5142 8.44308 84.2765C8.1421 84.0319 7.93144 83.7313 7.81107 83.3748C7.69066 83.0114 7.6305 82.5954 7.6305 82.1271V81.3093C7.6305 80.841 7.69066 80.4286 7.81107 80.0721C7.93144 79.7086 8.1421 79.408 8.44308 79.1704C8.74949 78.9257 9.15988 78.744 9.67427 78.6252C10.1941 78.4993 10.8453 78.4364 11.6278 78.4364H14.0901C14.8726 78.4364 15.521 78.4993 16.0354 78.6252C16.5552 78.744 16.9656 78.9257 17.2666 79.1704C17.573 79.408 17.7864 79.7086 17.9068 80.0721C18.0272 80.4286 18.0874 80.841 18.0874 81.3093V82.1271C18.0874 82.5954 18.0272 83.0114 17.9068 83.3748C17.7864 83.7313 17.573 84.0319 17.2666 84.2765C16.9656 84.5142 16.5552 84.6959 16.0354 84.8218C15.521 84.9406 14.8726 85 14.0901 85ZM11.6031 84.0039H14.1148C14.5908 84.0039 14.9273 83.8746 15.1243 83.616C15.3213 83.3574 15.4198 82.945 15.4198 82.3788V81.0472C15.4198 80.488 15.3213 80.0791 15.1243 79.8204C14.9273 79.5618 14.5908 79.4325 14.1148 79.4325H11.6031C11.1271 79.4325 10.7906 79.5618 10.5936 79.8204C10.3966 80.0791 10.2981 80.488 10.2981 81.0472V82.3788C10.2981 82.945 10.3966 83.3574 10.5936 83.616C10.7906 83.8746 11.1271 84.0039 11.6031 84.0039ZM19.2758 80.5963C19.2758 80.2888 19.3169 80.0127 19.3989 79.768C19.4865 79.5164 19.6424 79.3032 19.8668 79.1284C20.0966 78.9537 20.4085 78.8174 20.8025 78.7195C21.2019 78.6217 21.7081 78.5727 22.321 78.5727H25.3989V79.5688H23.2567C22.7094 79.5688 22.3264 79.6492 22.1076 79.81C21.8887 79.9707 21.7792 80.2503 21.7792 80.6488V84.8637H19.2758V80.5963ZM35.1372 84.8637H27.1591C26.7159 84.8637 26.3958 84.7763 26.1988 84.6016C26.0072 84.4198 25.9115 84.1822 25.9115 83.8886C25.9115 83.616 25.9936 83.3748 26.1577 83.1651C26.3219 82.9554 26.6338 82.7317 27.0934 82.4941L31.7966 80.0301C31.8567 80.0022 31.9033 79.9707 31.9361 79.9358C31.9689 79.9008 31.9854 79.8484 31.9854 79.7785C31.9854 79.7016 31.9607 79.6492 31.9115 79.6212C31.8677 79.5863 31.8075 79.5688 31.7309 79.5688H25.9936V78.5727H33.7747C34.2288 78.5727 34.5763 78.6426 34.8171 78.7824C35.0633 78.9222 35.1864 79.1704 35.1864 79.5269C35.1864 79.8135 35.0879 80.0616 34.891 80.2713C34.6994 80.481 34.3766 80.7082 33.9224 80.9528L29.2439 83.4587C29.1782 83.4937 29.1262 83.5286 29.088 83.5636C29.0496 83.5985 29.0305 83.6405 29.0305 83.6894C29.0305 83.7593 29.0524 83.8082 29.0962 83.8362C29.1454 83.8571 29.2056 83.8676 29.2767 83.8676H35.1372V84.8637ZM41.6286 78.5727C42.3619 78.5727 42.9611 78.6147 43.4261 78.6986C43.8911 78.7824 44.2551 78.9118 44.5177 79.0865C44.7804 79.2543 44.961 79.4675 45.0595 79.7261C45.158 79.9847 45.2072 80.2888 45.2072 80.6383V84.8637H38.2797C37.8365 84.8637 37.4644 84.8358 37.1634 84.7798C36.868 84.7169 36.6327 84.6295 36.4576 84.5177C36.2824 84.4059 36.1593 84.2661 36.0882 84.0983C36.0171 83.9236 35.9815 83.7278 35.9815 83.5111C35.9815 83.1686 36.121 82.8541 36.4001 82.5675C36.6792 82.2809 37.1087 82.0013 37.6888 81.7287L42.1949 79.6107C42.08 79.5968 41.9405 79.5863 41.7763 79.5793C41.6121 79.5723 41.4152 79.5688 41.1853 79.5688H36.1375V78.5727H41.6286ZM39.7736 83.8676H42.7448V80.5334C42.7448 80.5055 42.7448 80.481 42.7448 80.46C42.7448 80.4321 42.7448 80.4076 42.7448 80.3866L39.6422 81.9384C39.3522 82.0852 39.147 82.246 39.0266 82.4207C38.9117 82.5885 38.8543 82.7912 38.8543 83.0288C38.8543 83.2874 38.9254 83.4937 39.0677 83.6474C39.2154 83.7942 39.4507 83.8676 39.7736 83.8676ZM47.4972 84.8637V79.5688H45.9049V78.5727H47.4972C47.503 78.3001 47.5522 78.066 47.645 77.8702C47.7435 77.6675 47.9052 77.5033 48.1292 77.3775C48.3537 77.2516 48.6574 77.1573 49.0403 77.0944C49.4236 77.0315 49.8997 77 50.4685 77H53.292V77.9122H50.5916C50.3729 77.9122 50.2198 77.9646 50.132 78.0695C50.0446 78.1673 50.0006 78.3246 50.0006 78.5413V78.5727H53.292V79.5688H50.0006V84.8637H47.4972ZM59.995 85H57.5326C56.7504 85 56.0991 84.9406 55.5792 84.8218C55.0649 84.6959 54.6545 84.5142 54.348 84.2765C54.0472 84.0319 53.8366 83.7313 53.716 83.3748C53.5957 83.0114 53.5354 82.5954 53.5354 82.1271V81.3093C53.5354 80.841 53.5957 80.4286 53.716 80.0721C53.8366 79.7086 54.0472 79.408 54.348 79.1704C54.6545 78.9257 55.0649 78.744 55.5792 78.6252C56.0991 78.4993 56.7504 78.4364 57.5326 78.4364H59.995C60.7777 78.4364 61.4261 78.4993 61.9403 78.6252C62.4603 78.744 62.8707 78.9257 63.1715 79.1704C63.4781 79.408 63.6915 79.7086 63.8117 80.0721C63.9324 80.4286 63.9923 80.841 63.9923 81.3093V82.1271C63.9923 82.5954 63.9324 83.0114 63.8117 83.3748C63.6915 83.7313 63.4781 84.0319 63.1715 84.2765C62.8707 84.5142 62.4603 84.6959 61.9403 84.8218C61.4261 84.9406 60.7777 85 59.995 85ZM57.508 84.0039H60.0196C60.4957 84.0039 60.8322 83.8746 61.0292 83.616C61.2262 83.3574 61.3247 82.945 61.3247 82.3788V81.0472C61.3247 80.488 61.2262 80.0791 61.0292 79.8204C60.8322 79.5618 60.4957 79.4325 60.0196 79.4325H57.508C57.032 79.4325 56.6954 79.5618 56.4985 79.8204C56.3015 80.0791 56.203 80.488 56.203 81.0472V82.3788C56.203 82.945 56.3015 83.3574 56.4985 83.616C56.6954 83.8746 57.032 84.0039 57.508 84.0039ZM65.1808 80.5963C65.1808 80.2888 65.2218 80.0127 65.3039 79.768C65.3917 79.5164 65.5477 79.3032 65.7718 79.1284C66.0016 78.9537 66.3135 78.8174 66.7075 78.7195C67.1072 78.6217 67.6132 78.5727 68.2259 78.5727H71.3039V79.5688H69.1616C68.6146 79.5688 68.2317 79.6492 68.0125 79.81C67.7938 79.9707 67.6842 80.2503 67.6842 80.6488V84.8637H65.1808V80.5963ZM81.0422 84.8637H73.0641C72.6209 84.8637 72.3008 84.7763 72.1038 84.6016C71.9121 84.4198 71.8165 84.1822 71.8165 83.8886C71.8165 83.616 71.8986 83.3748 72.0627 83.1651C72.2269 82.9554 72.5388 82.7317 72.9984 82.4941L77.7016 80.0301C77.7619 80.0022 77.8083 79.9707 77.8411 79.9358C77.8739 79.9008 77.8904 79.8484 77.8904 79.7785C77.8904 79.7016 77.8657 79.6492 77.8165 79.6212C77.7726 79.5863 77.7127 79.5688 77.6359 79.5688H71.8986V78.5727H79.6797C80.134 78.5727 80.4812 78.6426 80.7221 78.7824C80.9683 78.9222 81.0915 79.1704 81.0915 79.5269C81.0915 79.8135 80.993 80.0616 80.796 80.2713C80.6043 80.481 80.2817 80.7082 79.8274 80.9528L75.1489 83.4587C75.0832 83.4937 75.0311 83.5286 74.993 83.5636C74.9548 83.5985 74.9355 83.6405 74.9355 83.6894C74.9355 83.7593 74.9573 83.8082 75.0012 83.8362C75.0504 83.8571 75.1107 83.8676 75.1817 83.8676H81.0422V84.8637ZM87.5334 78.5727C88.2668 78.5727 88.866 78.6147 89.331 78.6986C89.7964 78.7824 90.16 78.9118 90.4226 79.0865C90.6853 79.2543 90.8659 79.4675 90.9644 79.7261C91.0629 79.9847 91.1121 80.2888 91.1121 80.6383V84.8637H84.1846C83.7414 84.8637 83.3696 84.8358 83.0683 84.7798C82.7728 84.7169 82.5377 84.6295 82.3625 84.5177C82.1876 84.4059 82.0645 84.2661 81.9931 84.0983C81.9221 83.9236 81.8864 83.7278 81.8864 83.5111C81.8864 83.1686 82.0259 82.8541 82.305 82.5675C82.5841 82.2809 83.0138 82.0013 83.5936 81.7287L88.0998 79.6107C87.9849 79.5968 87.8453 79.5863 87.6812 79.5793C87.517 79.5723 87.32 79.5688 87.0902 79.5688H82.0423V78.5727H87.5334ZM85.6785 83.8676H88.6497V80.5334C88.6497 80.5055 88.6497 80.481 88.6497 80.46C88.6497 80.4321 88.6497 80.4076 88.6497 80.3866L85.5471 81.9384C85.2574 82.0852 85.0522 82.246 84.9315 82.4207C84.8166 82.5885 84.7592 82.7912 84.7592 83.0288C84.7592 83.2874 84.8306 83.4937 84.9726 83.6474C85.1203 83.7942 85.3559 83.8676 85.6785 83.8676ZM93.4025 84.8637V79.5688H91.8102V78.5727H93.4025C93.4079 78.3001 93.4571 78.066 93.5503 77.8702C93.6488 77.6675 93.81 77.5033 94.0345 77.3775C94.259 77.2516 94.5627 77.1573 94.9456 77.0944C95.3285 77.0315 95.8046 77 96.3738 77H99.1973V77.9122H96.4969C96.2782 77.9122 96.1247 77.9646 96.0373 78.0695C95.9499 78.1673 95.9059 78.3246 95.9059 78.5413V78.5727H99.1973V79.5688H95.9059V84.8637H93.4025ZM105.9 85H103.438C102.655 85 102.004 84.9406 101.484 84.8218C100.97 84.6959 100.56 84.5142 100.253 84.2765C99.9525 84.0319 99.7415 83.7313 99.6213 83.3748C99.501 83.0114 99.4407 82.5954 99.4407 82.1271V81.3093C99.4407 80.841 99.501 80.4286 99.6213 80.0721C99.7415 79.7086 99.9525 79.408 100.253 79.1704C100.56 78.9257 100.97 78.744 101.484 78.6252C102.004 78.4993 102.655 78.4364 103.438 78.4364H105.9C106.683 78.4364 107.331 78.4993 107.846 78.6252C108.366 78.744 108.776 78.9257 109.077 79.1704C109.383 79.408 109.597 79.7086 109.717 80.0721C109.837 80.4286 109.898 80.841 109.898 81.3093V82.1271C109.898 82.5954 109.837 83.0114 109.717 83.3748C109.597 83.7313 109.383 84.0319 109.077 84.2765C108.776 84.5142 108.366 84.6959 107.846 84.8218C107.331 84.9406 106.683 85 105.9 85ZM103.413 84.0039H105.925C106.401 84.0039 106.738 83.8746 106.935 83.616C107.132 83.3574 107.23 82.945 107.23 82.3788V81.0472C107.23 80.488 107.132 80.0791 106.935 79.8204C106.738 79.5618 106.401 79.4325 105.925 79.4325H103.413C102.937 79.4325 102.601 79.5618 102.404 79.8204C102.207 80.0791 102.108 80.488 102.108 81.0472V82.3788C102.108 82.945 102.207 83.3574 102.404 83.616C102.601 83.8746 102.937 84.0039 103.413 84.0039ZM111.086 80.5963C111.086 80.2888 111.127 80.0127 111.209 79.768C111.297 79.5164 111.453 79.3032 111.677 79.1284C111.907 78.9537 112.219 78.8174 112.613 78.7195C113.012 78.6217 113.518 78.5727 114.131 78.5727H117.209V79.5688H115.067C114.519 79.5688 114.137 79.6492 113.918 79.81C113.699 79.9707 113.59 80.2503 113.59 80.6488V84.8637H111.086V80.5963ZM126.948 84.8637H118.969C118.526 84.8637 118.206 84.7763 118.009 84.6016C117.817 84.4198 117.722 84.1822 117.722 83.8886C117.722 83.616 117.804 83.3748 117.968 83.1651C118.132 82.9554 118.444 82.7317 118.904 82.4941L123.607 80.0301C123.667 80.0022 123.714 79.9707 123.746 79.9358C123.779 79.9008 123.796 79.8484 123.796 79.7785C123.796 79.7016 123.771 79.6492 123.722 79.6212C123.678 79.5863 123.618 79.5688 123.541 79.5688H117.804V78.5727H125.585C126.039 78.5727 126.386 78.6426 126.627 78.7824C126.874 78.9222 126.997 79.1704 126.997 79.5269C126.997 79.8135 126.898 80.0616 126.701 80.2713C126.51 80.481 126.187 80.7082 125.733 80.9528L121.054 83.4587C120.989 83.4937 120.936 83.5286 120.898 83.5636C120.86 83.5985 120.841 83.6405 120.841 83.6894C120.841 83.7593 120.863 83.8082 120.906 83.8362C120.956 83.8571 121.016 83.8676 121.087 83.8676H126.948V84.8637ZM133.439 78.5727C134.172 78.5727 134.771 78.6147 135.236 78.6986C135.701 78.7824 136.065 78.9118 136.328 79.0865C136.591 79.2543 136.771 79.4675 136.87 79.7261C136.968 79.9847 137.017 80.2888 137.017 80.6383V84.8637H130.09C129.647 84.8637 129.274 84.8358 128.974 84.7798C128.678 84.7169 128.443 84.6295 128.268 84.5177C128.093 84.4059 127.969 84.2661 127.898 84.0983C127.827 83.9236 127.792 83.7278 127.792 83.5111C127.792 83.1686 127.931 82.8541 128.21 82.5675C128.489 82.2809 128.919 82.0013 129.499 81.7287L134.005 79.6107C133.89 79.5968 133.751 79.5863 133.586 79.5793C133.422 79.5723 133.225 79.5688 132.996 79.5688H127.948V78.5727H133.439ZM131.584 83.8676H134.555V80.5334C134.555 80.5055 134.555 80.481 134.555 80.46C134.555 80.4321 134.555 80.4076 134.555 80.3866L131.452 81.9384C131.162 82.0852 130.957 82.246 130.837 82.4207C130.722 82.5885 130.664 82.7912 130.664 83.0288C130.664 83.2874 130.735 83.4937 130.878 83.6474C131.026 83.7942 131.261 83.8676 131.584 83.8676ZM138.163 84.8637V82.7143H140.42V84.8637H138.163ZM145.107 79.5688C144.691 79.5688 144.393 79.6772 144.212 79.8938C144.037 80.1035 143.949 80.488 143.949 81.0472V82.3788C143.949 82.945 144.037 83.3364 144.212 83.5531C144.393 83.7628 144.691 83.8676 145.107 83.8676H150.179V84.8637H145.271C144.543 84.8637 143.925 84.8148 143.416 84.7169C142.907 84.6121 142.494 84.4548 142.176 84.2451C141.865 84.0354 141.638 83.7628 141.495 83.4273C141.353 83.0917 141.282 82.6933 141.282 82.232V81.2045C141.282 80.7431 141.353 80.3447 141.495 80.0092C141.638 79.6737 141.865 79.401 142.176 79.1914C142.494 78.9817 142.907 78.8279 143.416 78.73C143.925 78.6252 144.543 78.5727 145.271 78.5727H150.179V79.5688H145.107ZM157.424 85H154.962C154.179 85 153.528 84.9406 153.008 84.8218C152.494 84.6959 152.083 84.5142 151.777 84.2765C151.476 84.0319 151.266 83.7313 151.145 83.3748C151.025 83.0114 150.965 82.5954 150.965 82.1271V81.3093C150.965 80.841 151.025 80.4286 151.145 80.0721C151.266 79.7086 151.476 79.408 151.777 79.1704C152.083 78.9257 152.494 78.744 153.008 78.6252C153.528 78.4993 154.179 78.4364 154.962 78.4364H157.424C158.207 78.4364 158.855 78.4993 159.37 78.6252C159.889 78.744 160.3 78.9257 160.601 79.1704C160.907 79.408 161.12 79.7086 161.241 80.0721C161.361 80.4286 161.422 80.841 161.422 81.3093V82.1271C161.422 82.5954 161.361 83.0114 161.241 83.3748C161.12 83.7313 160.907 84.0319 160.601 84.2765C160.3 84.5142 159.889 84.6959 159.37 84.8218C158.855 84.9406 158.207 85 157.424 85ZM154.937 84.0039H157.449C157.925 84.0039 158.262 83.8746 158.459 83.616C158.656 83.3574 158.754 82.945 158.754 82.3788V81.0472C158.754 80.488 158.656 80.0791 158.459 79.8204C158.262 79.5618 157.925 79.4325 157.449 79.4325H154.937C154.461 79.4325 154.125 79.5618 153.928 79.8204C153.731 80.0791 153.632 80.488 153.632 81.0472V82.3788C153.632 82.945 153.731 83.3574 153.928 83.616C154.125 83.8746 154.461 84.0039 154.937 84.0039ZM162.61 84.8637V78.5727H175.259C175.767 78.5727 176.197 78.6182 176.547 78.709C176.903 78.7929 177.187 78.9257 177.401 79.1075C177.614 79.2892 177.767 79.5234 177.86 79.81C177.953 80.0966 178 80.4356 178 80.827V84.8637H175.497V80.7012C175.497 80.2888 175.409 80.0057 175.234 79.8519C175.059 79.6981 174.741 79.6212 174.282 79.6212H171.557V84.8637H169.053V79.6212H165.114V84.8637H162.61Z" fill="white"/>
</svg>
