<svg width="380" height="120" viewBox="0 0 380 120" fill="none" xmlns="http://www.w3.org/2000/svg">
<path d="M58 8L190 85L322 8L309 38.5L380 11.3918L319.612 28.0412L328 0L190 67.5L52 0L60.3876 28.0412L0 11.3918L71 38.5L58 8Z" fill="#292929"/>
<path d="M190 90L193.368 100.365H204.266L195.449 106.771L198.817 117.135L190 110.729L181.183 117.135L184.551 106.771L175.734 100.365H186.632L190 90Z" fill="#292929"/>
<path d="M144.5 67L147.306 75.6373H156.388L149.041 80.9754L151.847 89.6127L144.5 84.2746L137.153 89.6127L139.959 80.9754L132.612 75.6373H141.694L144.5 67Z" fill="#292929"/>
<path d="M235.5 67L238.306 75.6373H247.388L240.041 80.9754L242.847 89.6127L235.5 84.2746L228.153 89.6127L230.959 80.9754L223.612 75.6373H232.694L235.5 67Z" fill="#292929"/>
<path d="M87.7491 36.4889V16.633H80V12.8978H87.7491C87.7757 11.8755 88.0154 10.9974 88.4681 10.2634C88.9474 9.50327 89.7329 8.88729 90.8247 8.41547C91.9165 7.94364 93.3945 7.58978 95.2585 7.35387C97.1225 7.11796 99.4393 7 102.209 7H115.949V10.4207H102.808C101.743 10.4207 100.997 10.6173 100.571 11.0105C100.145 11.3775 99.9319 11.9672 99.9319 12.7798V12.8978H115.949V16.633H99.9319V36.4889H87.7491ZM148.569 37H136.586C132.778 37 129.609 36.7773 127.08 36.3316C124.576 35.8598 122.579 35.1782 121.088 34.287C119.623 33.3695 118.598 32.2425 118.012 30.9056C117.426 29.5427 117.134 27.9829 117.134 26.2267V23.1599C117.134 21.4037 117.426 19.8571 118.012 18.5203C118.598 17.1573 119.623 16.0301 121.088 15.1389C122.579 14.2215 124.576 13.54 127.08 13.0944C129.609 12.6225 132.778 12.3866 136.586 12.3866H148.569C152.377 12.3866 155.533 12.6225 158.036 13.0944C160.566 13.54 162.563 14.2215 164.028 15.1389C165.519 16.0301 166.557 17.1573 167.143 18.5203C167.729 19.8571 168.022 21.4037 168.022 23.1599V26.2267C168.022 27.9829 167.729 29.5427 167.143 30.9056C166.557 32.2425 165.519 33.3695 164.028 34.287C162.563 35.1782 160.566 35.8598 158.036 36.3316C155.533 36.7773 152.377 37 148.569 37ZM136.466 33.2647H148.689C151.006 33.2647 152.644 32.7798 153.602 31.81C154.561 30.8402 155.04 29.2936 155.04 27.1704V22.1769C155.04 20.0799 154.561 18.5465 153.602 17.5767C152.644 16.6068 151.006 16.1219 148.689 16.1219H136.466C134.15 16.1219 132.512 16.6068 131.553 17.5767C130.595 18.5465 130.115 20.0799 130.115 22.1769V27.1704C130.115 29.2936 130.595 30.8402 131.553 31.81C132.512 32.7798 134.15 33.2647 136.466 33.2647ZM173.805 20.4862C173.805 19.3329 174.005 18.2975 174.405 17.3801C174.831 16.4364 175.59 15.637 176.681 14.9817C177.8 14.3264 179.318 13.8152 181.235 13.4482C183.179 13.0813 185.642 12.8978 188.625 12.8978H203.603V16.633H193.178C190.515 16.633 188.651 16.9345 187.586 17.5374C186.521 18.1402 185.988 19.1887 185.988 20.6828V36.4889H173.805V20.4862ZM250.994 36.4889H212.169C210.012 36.4889 208.454 36.1611 207.496 35.5059C206.564 34.8243 206.098 33.9332 206.098 32.8322C206.098 31.81 206.497 30.9056 207.296 30.1193C208.095 29.3329 209.613 28.494 211.85 27.6029L234.737 18.363C235.03 18.2582 235.257 18.1402 235.416 18.0092C235.576 17.8781 235.656 17.6815 235.656 17.4194C235.656 17.1311 235.536 16.9345 235.297 16.8296C235.083 16.6986 234.79 16.633 234.418 16.633H206.497V12.8978H244.364C246.574 12.8978 248.265 13.1599 249.437 13.6841C250.635 14.2084 251.234 15.1389 251.234 16.4758C251.234 17.5505 250.755 18.481 249.796 19.2674C248.864 20.0537 247.293 20.9056 245.083 21.8231L222.315 31.2202C221.995 31.3513 221.742 31.4822 221.556 31.6134C221.369 31.7445 221.276 31.9018 221.276 32.0852C221.276 32.3473 221.383 32.5309 221.596 32.6356C221.836 32.7143 222.128 32.7536 222.475 32.7536H250.994V36.4889ZM282.585 12.8978C286.153 12.8978 289.069 13.055 291.332 13.3696C293.595 13.6841 295.367 14.1691 296.645 14.8244C297.923 15.4535 298.802 16.253 299.281 17.2228C299.76 18.1927 300 19.3329 300 20.6435V36.4889H266.287C264.131 36.4889 262.32 36.3841 260.855 36.1743C259.417 35.9384 258.272 35.6107 257.42 35.1914C256.568 34.772 255.969 34.2477 255.622 33.6186C255.276 32.9634 255.103 32.2293 255.103 31.4168C255.103 30.1324 255.782 28.9529 257.14 27.8781C258.498 26.8033 260.589 25.7549 263.412 24.7326L285.341 16.7903C284.781 16.7379 284.102 16.6986 283.303 16.6723C282.505 16.6461 281.546 16.633 280.428 16.633H255.862V12.8978H282.585ZM273.557 32.7536H288.017V20.2503C288.017 20.1455 288.017 20.0537 288.017 19.9751C288.017 19.8703 288.017 19.7785 288.017 19.6999L272.918 25.519C271.507 26.0695 270.508 26.6724 269.922 27.3277C269.363 27.9568 269.084 28.717 269.084 29.6081C269.084 30.5779 269.43 31.3513 270.122 31.9279C270.841 32.4784 271.986 32.7536 273.557 32.7536Z" fill="white"/>
</svg>
