<svg width="1102" height="153" viewBox="0 0 1102 153" fill="none" xmlns="http://www.w3.org/2000/svg">
<path d="M38.8 150V49H1.19209e-07V30H38.8C38.9333 24.8 40.1333 20.3333 42.4 16.6C44.8 12.7333 48.7333 9.59999 54.2 7.19999C59.6667 4.79999 67.0667 2.99999 76.4 1.79999C85.7333 0.599988 97.3333 -1.19209e-05 111.2 -1.19209e-05H180V17.4H114.2C108.867 17.4 105.133 18.4 103 20.4C100.867 22.2667 99.8 25.2667 99.8 29.4V30H180V49H99.8V150H38.8ZM343.33 152.6H283.33C264.263 152.6 248.396 151.467 235.73 149.2C223.196 146.8 213.196 143.333 205.73 138.8C198.396 134.133 193.263 128.4 190.33 121.6C187.396 114.667 185.93 106.733 185.93 97.8V82.2C185.93 73.2667 187.396 65.4 190.33 58.6C193.263 51.6667 198.396 45.9333 205.73 41.4C213.196 36.7333 223.196 33.2667 235.73 31C248.396 28.6 264.263 27.4 283.33 27.4H343.33C362.396 27.4 378.196 28.6 390.73 31C403.396 33.2667 413.396 36.7333 420.73 41.4C428.196 45.9333 433.396 51.6667 436.33 58.6C439.263 65.4 440.73 73.2667 440.73 82.2V97.8C440.73 106.733 439.263 114.667 436.33 121.6C433.396 128.4 428.196 134.133 420.73 138.8C413.396 143.333 403.396 146.8 390.73 149.2C378.196 151.467 362.396 152.6 343.33 152.6ZM282.73 133.6H343.93C355.53 133.6 363.73 131.133 368.53 126.2C373.33 121.267 375.73 113.4 375.73 102.6V77.2C375.73 66.5333 373.33 58.7333 368.53 53.8C363.73 48.8667 355.53 46.4 343.93 46.4H282.73C271.13 46.4 262.93 48.8667 258.13 53.8C253.33 58.7333 250.93 66.5333 250.93 77.2V102.6C250.93 113.4 253.33 121.267 258.13 126.2C262.93 131.133 271.13 133.6 282.73 133.6ZM469.688 68.6C469.688 62.7333 470.688 57.4667 472.688 52.8C474.821 48 478.621 43.9333 484.088 40.6C489.688 37.2667 497.288 34.6667 506.888 32.8C516.621 30.9333 528.954 30 543.888 30H618.888V49H566.688C553.354 49 544.021 50.5333 538.688 53.6C533.354 56.6667 530.688 62 530.688 69.6V150H469.688V68.6ZM856.177 150H661.777C650.977 150 643.177 148.333 638.377 145C633.71 141.533 631.377 137 631.377 131.4C631.377 126.2 633.377 121.6 637.377 117.6C641.377 113.6 648.977 109.333 660.177 104.8L774.777 57.8C776.243 57.2667 777.377 56.6667 778.177 56C778.977 55.3333 779.377 54.3333 779.377 53C779.377 51.5333 778.777 50.5333 777.577 50C776.51 49.3333 775.043 49 773.177 49H633.377V30H822.977C834.043 30 842.51 31.3333 848.377 34C854.377 36.6667 857.377 41.4 857.377 48.2C857.377 53.6667 854.977 58.4 850.177 62.4C845.51 66.4 837.643 70.7333 826.577 75.4L712.577 123.2C710.977 123.867 709.71 124.533 708.777 125.2C707.843 125.867 707.377 126.667 707.377 127.6C707.377 128.933 707.91 129.867 708.977 130.4C710.177 130.8 711.643 131 713.377 131H856.177V150ZM1014.35 30C1032.22 30 1046.82 30.8 1058.15 32.4C1069.48 34 1078.35 36.4667 1084.75 39.8C1091.15 43 1095.55 47.0667 1097.95 52C1100.35 56.9333 1101.55 62.7333 1101.55 69.4V150H932.75C921.95 150 912.883 149.467 905.55 148.4C898.35 147.2 892.617 145.533 888.35 143.4C884.083 141.267 881.083 138.6 879.35 135.4C877.617 132.067 876.75 128.333 876.75 124.2C876.75 117.667 880.15 111.667 886.95 106.2C893.75 100.733 904.217 95.4 918.35 90.2L1028.15 49.8C1025.35 49.5333 1021.95 49.3333 1017.95 49.2C1013.95 49.0667 1009.15 49 1003.55 49H880.55V30H1014.35ZM969.15 131H1041.55V67.4C1041.55 66.8667 1041.55 66.4 1041.55 66C1041.55 65.4667 1041.55 65 1041.55 64.6L965.95 94.2C958.883 97 953.883 100.067 950.95 103.4C948.15 106.6 946.75 110.467 946.75 115C946.75 119.933 948.483 123.867 951.95 126.8C955.55 129.6 961.283 131 969.15 131Z" fill="black"/>
</svg>
