<svg width="1928" height="246" viewBox="0 0 1928 246" fill="none" xmlns="http://www.w3.org/2000/svg">
<path d="M62.4858 241.809V78.9908H0V48.3617H62.4858C62.7004 39.979 64.633 32.7785 68.2834 26.7602C72.1485 20.5268 78.4829 15.4758 87.2868 11.6068C96.0907 7.73788 108.008 4.83618 123.039 2.90171C138.07 0.967235 156.751 0 179.083 0H289.882V28.0498H183.914C175.326 28.0498 169.312 29.6619 165.877 32.886C162.442 35.8952 160.724 40.7314 160.724 47.3945V48.3617H289.882V78.9908H160.724V241.809H62.4858ZM552.918 246H456.291C425.584 246 400.031 244.174 379.633 240.519C359.448 236.65 343.343 231.061 331.319 223.754C319.508 216.23 311.242 206.988 306.518 196.026C301.793 184.85 299.432 172.06 299.432 157.659V132.511C299.432 118.11 301.793 105.429 306.518 94.4666C311.242 83.2897 319.508 74.0471 331.319 66.7392C343.343 59.2162 359.448 53.6278 379.633 49.9738C400.031 46.1049 425.584 44.1704 456.291 44.1704H552.918C583.623 44.1704 609.069 46.1049 629.254 49.9738C649.652 53.6278 665.757 59.2162 677.568 66.7392C689.592 74.0471 697.966 83.2897 702.691 94.4666C707.415 105.429 709.777 118.11 709.777 132.511V157.659C709.777 172.06 707.415 184.85 702.691 196.026C697.966 206.988 689.592 216.23 677.568 223.754C665.757 231.061 649.652 236.65 629.254 240.519C609.069 244.174 583.623 246 552.918 246ZM455.325 215.371H553.885C572.566 215.371 585.772 211.394 593.502 203.442C601.232 195.489 605.097 182.807 605.097 165.397V124.451C605.097 107.256 601.232 94.6815 593.502 86.7287C585.772 78.7759 572.566 74.7995 553.885 74.7995H455.325C436.643 74.7995 423.438 78.7759 415.708 86.7287C407.977 94.6815 404.112 107.256 404.112 124.451V165.397C404.112 182.807 407.977 195.489 415.708 203.442C423.438 211.394 436.643 215.371 455.325 215.371ZM756.413 110.587C756.413 101.13 758.023 92.6396 761.244 85.1167C764.679 77.3788 770.799 70.823 779.603 65.4495C788.622 60.0761 800.861 55.8847 816.322 52.8755C831.996 49.8663 851.858 48.3617 875.909 48.3617H996.693V78.9908H912.627C891.153 78.9908 876.123 81.4626 867.534 86.4063C858.944 91.35 854.651 99.9476 854.651 112.199V241.809H756.413V110.587ZM1378.84 241.809H1065.76C1048.37 241.809 1035.81 239.121 1028.08 233.748C1020.56 228.159 1016.81 220.852 1016.81 211.824C1016.81 203.442 1020.03 196.026 1026.47 189.578C1032.91 183.13 1045.15 176.251 1063.19 168.944L1247.75 93.1769C1250.11 92.3172 1251.93 91.35 1253.22 90.2752C1254.51 89.2005 1255.15 87.5884 1255.15 85.4391C1255.15 83.0747 1254.19 81.4626 1252.26 80.6029C1250.54 79.5281 1248.17 78.9908 1245.17 78.9908H1020.03V48.3617H1325.37C1343.19 48.3617 1356.83 50.5111 1366.28 54.81C1375.94 59.1088 1380.77 66.7392 1380.77 77.7012C1380.77 86.5138 1376.9 94.1442 1369.17 100.592C1361.66 107.041 1348.99 114.026 1331.17 121.549L1147.58 198.605C1145 199.681 1142.96 200.754 1141.46 201.83C1139.95 202.905 1139.2 204.195 1139.2 205.699C1139.2 207.847 1140.06 209.353 1141.78 210.212C1143.71 210.857 1146.07 211.18 1148.86 211.18H1378.84V241.809ZM1633.57 48.3617C1662.35 48.3617 1685.86 49.6514 1704.11 52.2307C1722.35 54.81 1736.64 58.7864 1746.94 64.1599C1757.25 69.3185 1764.34 75.8742 1768.2 83.827C1772.07 91.7798 1774 101.13 1774 111.877V241.809H1502.15C1484.76 241.809 1470.16 240.949 1458.35 239.229C1446.75 237.295 1437.52 234.608 1430.65 231.169C1423.78 227.731 1418.95 223.431 1416.16 218.273C1413.37 212.9 1411.97 206.88 1411.97 200.218C1411.97 189.686 1417.44 180.014 1428.4 171.201C1439.35 162.387 1456.2 153.79 1478.96 145.408L1655.79 80.2805C1651.28 79.8505 1645.81 79.5281 1639.37 79.3132C1632.92 79.0984 1625.19 78.9908 1616.18 78.9908H1418.09V48.3617H1633.57ZM1560.78 211.18H1677.37V108.653C1677.37 107.793 1677.37 107.041 1677.37 106.396C1677.37 105.536 1677.37 104.784 1677.37 104.139L1555.62 151.856C1544.24 156.37 1536.19 161.314 1531.46 166.687C1526.96 171.845 1524.7 178.079 1524.7 185.387C1524.7 193.339 1527.49 199.681 1533.08 204.409C1538.87 208.923 1548.11 211.18 1560.78 211.18Z" fill="#FFE600"/>
<path d="M135.486 241.809V78.9908H73V48.3617H135.486C135.7 39.979 137.633 32.7785 141.283 26.7602C145.149 20.5268 151.483 15.4758 160.287 11.6068C169.091 7.73788 181.008 4.83618 196.039 2.90171C211.07 0.967235 229.751 0 252.083 0H362.882V28.0498H256.914C248.326 28.0498 242.312 29.6619 238.877 32.886C235.442 35.8952 233.724 40.7314 233.724 47.3945V48.3617H362.882V78.9908H233.724V241.809H135.486ZM625.918 246H529.291C498.584 246 473.031 244.174 452.633 240.519C432.448 236.65 416.343 231.061 404.319 223.754C392.508 216.23 384.242 206.988 379.518 196.026C374.793 184.85 372.432 172.06 372.432 157.659V132.511C372.432 118.11 374.793 105.429 379.518 94.4666C384.242 83.2897 392.508 74.0471 404.319 66.7392C416.343 59.2162 432.448 53.6278 452.633 49.9738C473.031 46.1049 498.584 44.1704 529.291 44.1704H625.918C656.623 44.1704 682.069 46.1049 702.254 49.9738C722.652 53.6278 738.757 59.2162 750.568 66.7392C762.592 74.0471 770.966 83.2897 775.691 94.4666C780.415 105.429 782.777 118.11 782.777 132.511V157.659C782.777 172.06 780.415 184.85 775.691 196.026C770.966 206.988 762.592 216.23 750.568 223.754C738.757 231.061 722.652 236.65 702.254 240.519C682.069 244.174 656.623 246 625.918 246ZM528.325 215.371H626.885C645.566 215.371 658.772 211.394 666.502 203.442C674.232 195.489 678.097 182.807 678.097 165.397V124.451C678.097 107.256 674.232 94.6815 666.502 86.7287C658.772 78.7759 645.566 74.7995 626.885 74.7995H528.325C509.643 74.7995 496.438 78.7759 488.708 86.7287C480.977 94.6815 477.112 107.256 477.112 124.451V165.397C477.112 182.807 480.977 195.489 488.708 203.442C496.438 211.394 509.643 215.371 528.325 215.371ZM829.413 110.587C829.413 101.13 831.023 92.6396 834.244 85.1167C837.679 77.3788 843.799 70.823 852.603 65.4495C861.622 60.0761 873.861 55.8847 889.322 52.8755C904.996 49.8663 924.858 48.3617 948.909 48.3617H1069.69V78.9908H985.627C964.153 78.9908 949.123 81.4626 940.534 86.4063C931.944 91.35 927.651 99.9476 927.651 112.199V241.809H829.413V110.587ZM1451.84 241.809H1138.76C1121.37 241.809 1108.81 239.121 1101.08 233.748C1093.56 228.159 1089.81 220.852 1089.81 211.824C1089.81 203.442 1093.03 196.026 1099.47 189.578C1105.91 183.13 1118.15 176.251 1136.19 168.944L1320.75 93.1769C1323.11 92.3172 1324.93 91.35 1326.22 90.2752C1327.51 89.2005 1328.15 87.5884 1328.15 85.4391C1328.15 83.0747 1327.19 81.4626 1325.26 80.6029C1323.54 79.5281 1321.17 78.9908 1318.17 78.9908H1093.03V48.3617H1398.37C1416.19 48.3617 1429.83 50.5111 1439.28 54.81C1448.94 59.1088 1453.77 66.7392 1453.77 77.7012C1453.77 86.5138 1449.9 94.1442 1442.17 100.592C1434.66 107.041 1421.99 114.026 1404.17 121.549L1220.58 198.605C1218 199.681 1215.96 200.754 1214.46 201.83C1212.95 202.905 1212.2 204.195 1212.2 205.699C1212.2 207.847 1213.06 209.353 1214.78 210.212C1216.71 210.857 1219.07 211.18 1221.86 211.18H1451.84V241.809ZM1706.57 48.3617C1735.35 48.3617 1758.86 49.6514 1777.11 52.2307C1795.35 54.81 1809.64 58.7864 1819.94 64.1599C1830.25 69.3185 1837.34 75.8742 1841.2 83.827C1845.07 91.7798 1847 101.13 1847 111.877V241.809H1575.15C1557.76 241.809 1543.16 240.949 1531.35 239.229C1519.75 237.295 1510.52 234.608 1503.65 231.169C1496.78 227.731 1491.95 223.431 1489.16 218.273C1486.37 212.9 1484.97 206.88 1484.97 200.218C1484.97 189.686 1490.44 180.014 1501.4 171.201C1512.35 162.387 1529.2 153.79 1551.96 145.408L1728.79 80.2805C1724.28 79.8505 1718.81 79.5281 1712.37 79.3132C1705.92 79.0984 1698.19 78.9908 1689.18 78.9908H1491.09V48.3617H1706.57ZM1633.78 211.18H1750.37V108.653C1750.37 107.793 1750.37 107.041 1750.37 106.396C1750.37 105.536 1750.37 104.784 1750.37 104.139L1628.62 151.856C1617.24 156.37 1609.19 161.314 1604.46 166.687C1599.96 171.845 1597.7 178.079 1597.7 185.387C1597.7 193.339 1600.49 199.681 1606.08 204.409C1611.87 208.923 1621.11 211.18 1633.78 211.18Z" fill="#9D0000"/>
<path d="M216.486 241.826V79.6697H154V49.1652H216.486C216.7 40.8165 218.633 33.6452 222.283 27.6514C226.149 21.4434 232.483 16.4128 241.287 12.5596C250.091 8.70642 262.008 5.81652 277.039 3.88991C292.07 1.9633 310.751 1 333.083 1H443.882V28.9358H337.914C329.326 28.9358 323.312 30.5413 319.877 33.7523C316.442 36.7493 314.724 41.5658 314.724 48.2018V49.1652H443.882V79.6697H314.724V241.826H216.486ZM706.918 246H610.291C579.584 246 554.031 244.181 533.633 240.541C513.448 236.688 497.343 231.122 485.319 223.844C473.508 216.351 465.242 207.147 460.518 196.229C455.793 185.098 453.432 172.36 453.432 158.018V132.972C453.432 118.63 455.793 106 460.518 95.0826C465.242 83.9511 473.508 74.7461 485.319 67.4679C497.343 59.9755 513.448 54.4099 533.633 50.7707C554.031 46.9174 579.584 44.9908 610.291 44.9908H706.918C737.623 44.9908 763.069 46.9174 783.254 50.7707C803.652 54.4099 819.757 59.9755 831.568 67.4679C843.592 74.7461 851.966 83.9511 856.691 95.0826C861.415 106 863.777 118.63 863.777 132.972V158.018C863.777 172.36 861.415 185.098 856.691 196.229C851.966 207.147 843.592 216.351 831.568 223.844C819.757 231.122 803.652 236.688 783.254 240.541C763.069 244.181 737.623 246 706.918 246ZM609.325 215.495H707.885C726.566 215.495 739.772 211.535 747.502 203.615C755.232 195.695 759.097 183.064 759.097 165.725V124.945C759.097 107.82 755.232 95.2966 747.502 87.3762C739.772 79.4557 726.566 75.4954 707.885 75.4954H609.325C590.643 75.4954 577.438 79.4557 569.708 87.3762C561.977 95.2966 558.112 107.82 558.112 124.945V165.725C558.112 183.064 561.977 195.695 569.708 203.615C577.438 211.535 590.643 215.495 609.325 215.495ZM910.413 111.138C910.413 101.719 912.023 93.2631 915.244 85.7706C918.679 78.0642 924.799 71.5351 933.603 66.1835C942.622 60.8319 954.861 56.6576 970.322 53.6606C985.996 50.6636 1005.86 49.1652 1029.91 49.1652H1150.69V79.6697H1066.63C1045.15 79.6697 1030.12 82.1315 1021.53 87.0551C1012.94 91.9787 1008.65 100.541 1008.65 112.743V241.826H910.413V111.138ZM1532.84 241.826H1219.76C1202.37 241.826 1189.81 239.149 1182.08 233.798C1174.56 228.232 1170.81 220.954 1170.81 211.963C1170.81 203.615 1174.03 196.229 1180.47 189.807C1186.91 183.385 1199.15 176.535 1217.19 169.257L1401.75 93.7982C1404.11 92.942 1405.93 91.9787 1407.22 90.9083C1408.51 89.8379 1409.15 88.2324 1409.15 86.0918C1409.15 83.737 1408.19 82.1315 1406.26 81.2752C1404.54 80.2048 1402.17 79.6697 1399.17 79.6697H1174.03V49.1652H1479.37C1497.19 49.1652 1510.83 51.3058 1520.28 55.5872C1529.94 59.8686 1534.77 67.4679 1534.77 78.3853C1534.77 87.1621 1530.9 94.7615 1523.17 101.183C1515.66 107.606 1502.99 114.563 1485.17 122.055L1301.58 198.798C1299 199.869 1296.96 200.938 1295.46 202.009C1293.95 203.08 1293.2 204.364 1293.2 205.862C1293.2 208.003 1294.06 209.502 1295.78 210.358C1297.71 211 1300.07 211.321 1302.86 211.321H1532.84V241.826ZM1787.57 49.1652C1816.35 49.1652 1839.86 50.4496 1858.11 53.0184C1876.35 55.5872 1890.64 59.5475 1900.94 64.8991C1911.25 70.0367 1918.34 76.5658 1922.2 84.4862C1926.07 92.4067 1928 101.719 1928 112.422V241.826H1656.15C1638.76 241.826 1624.16 240.97 1612.35 239.257C1600.75 237.33 1591.52 234.654 1584.65 231.229C1577.78 227.805 1572.95 223.523 1570.16 218.385C1567.37 213.034 1565.97 207.039 1565.97 200.404C1565.97 189.915 1571.44 180.282 1582.4 171.505C1593.35 162.727 1610.2 154.165 1632.96 145.817L1809.79 80.9541C1805.28 80.5259 1799.81 80.2048 1793.37 79.9908C1786.92 79.7768 1779.19 79.6697 1770.18 79.6697H1572.09V49.1652H1787.57ZM1714.78 211.321H1831.37V109.211C1831.37 108.355 1831.37 107.606 1831.37 106.963C1831.37 106.107 1831.37 105.358 1831.37 104.716L1709.62 152.239C1698.24 156.734 1690.19 161.658 1685.46 167.009C1680.96 172.147 1678.7 178.355 1678.7 185.633C1678.7 193.553 1681.49 199.869 1687.08 204.578C1692.87 209.073 1702.11 211.321 1714.78 211.321Z" fill="#024FE5"/>
</svg>
