<svg width="1238" height="391" viewBox="0 0 1238 391" fill="none" xmlns="http://www.w3.org/2000/svg">
<path fill-rule="evenodd" clip-rule="evenodd" d="M56.179 36.4141C64.3536 36.4141 70.9805 41.5573 70.9805 47.9018V102.74C70.9805 112.316 80.9833 120.08 93.3223 120.08H126.835C139.174 120.08 149.177 112.316 149.177 102.74V53.0856C149.177 41.5937 137.174 32.2777 122.367 32.2777H27.4139C23.9377 29.221 21.8284 25.2057 21.8284 20.808C21.8284 11.2314 31.8312 3.46801 44.1703 3.46801C56.5093 3.46801 66.5121 11.2314 66.5121 20.808H95.5565V0H44.1703C29.3634 0 17.36 9.31608 17.36 20.808V32.2958H2V36.4141H17.36L17.3626 105.774C17.3626 111.123 12.4562 115.592 5.90982 116.674V120.08H59.251V116.79C52.4288 115.959 47.8008 111.343 47.8008 105.774V48.5521L32.1615 36.4141H56.179ZM77.4038 53.3206C77.4038 43.744 87.4066 35.9806 99.7456 35.9806C112.085 35.9806 122.087 43.744 122.087 53.3206V96.6707C122.087 107.684 117.836 115.745 112.592 115.745C107.348 115.745 103.097 106.817 103.097 95.8037V79.3194L79.9317 61.3404C78.3169 58.9421 77.4038 56.2141 77.4038 53.3206Z" fill="black"/>
<path d="M331.542 36.4139C324.565 37.3403 319.254 42.0572 319.254 47.7367L319.251 67.8429L272.336 82.7987V102.306C272.336 109.968 276.088 116.178 280.715 116.178C285.342 116.178 289.093 109.968 289.093 102.306V91.9022H319.251V105.341C319.251 111.02 324.565 115.902 331.542 116.828V120.08H227.932V116.828C234.91 115.906 240.499 110.994 240.499 105.341V87.7839L289.093 72.6114V50.2861C289.093 42.6248 285.342 36.4141 280.715 36.4141C276.088 36.4141 272.336 42.6248 272.336 50.2861V61.5571H241.896V48.3353C241.896 41.7461 236.683 37.6423 234.076 36.4141V53.5374H205.311C205.311 44.0804 195.433 36.4141 183.248 36.4141C171.063 36.4141 161.186 44.0804 161.186 53.5374C161.186 57.1536 162.63 60.5081 165.096 63.2722L185.762 79.3117V105.574C185.762 111.024 190.652 115.587 197.212 116.766V120.096H143.871V116.896C150.848 115.97 156.159 111.253 156.159 105.574V47.7367C156.159 42.0572 150.848 37.3403 143.871 36.4139V32.2777H331.542V36.4139Z" fill="black"/>
<path d="M417 116.664C410.023 115.737 404.712 111.02 404.712 105.341V49.6358C404.712 40.0592 394.709 32.2958 382.37 32.2958H348.857C336.518 32.2958 326.515 39.8425 326.515 49.4191V54.6211H332.659V50.7196C332.659 42.7189 341.162 36.4141 351.65 36.4141H355.56C366.048 36.4141 374.55 42.7189 374.55 50.7196V73.0449L394.658 88.6509C398.847 91.6854 400.244 95.8531 400.244 99.4694C400.244 108.926 390.366 116.593 378.181 116.593C365.996 116.593 356.677 109.812 356.677 100.355V55.4881L327.074 77.5966V102.74C327.074 112.316 337.077 120.08 349.416 120.08H417V116.664Z" fill="black"/>
<path fill-rule="evenodd" clip-rule="evenodd" d="M467.179 36.4141C475.354 36.4141 481.98 41.5573 481.98 47.9018V102.74C481.98 112.316 491.983 120.08 504.322 120.08H537.835C550.174 120.08 560.177 112.316 560.177 102.74V53.0856C560.177 41.5937 548.174 32.2777 533.367 32.2777H438.414C434.938 29.221 432.828 25.2057 432.828 20.808C432.828 11.2314 442.831 3.46801 455.17 3.46801C467.509 3.46801 477.512 11.2314 477.512 20.808H506.557V0H455.17C440.363 0 428.36 9.31608 428.36 20.808V32.2958H413V36.4141H428.36L428.363 105.774C428.363 111.123 423.456 115.592 416.91 116.674V120.08H470.251V116.79C463.429 115.959 458.801 111.343 458.801 105.774V48.5521L443.162 36.4141H467.179ZM488.404 53.3206C488.404 43.744 498.407 35.9806 510.746 35.9806C523.085 35.9806 533.087 43.744 533.087 53.3206V96.6707C533.087 107.684 528.836 115.745 523.592 115.745C518.348 115.745 514.097 106.817 514.097 95.8037V79.3194L490.932 61.3404C489.317 58.9421 488.404 56.2141 488.404 53.3206Z" fill="black"/>
<path d="M742.542 36.4139C735.565 37.3403 730.254 42.0572 730.254 47.7367L730.251 67.8429L683.336 82.7987V102.306C683.336 109.968 687.088 116.178 691.715 116.178C696.342 116.178 700.093 109.968 700.093 102.306V91.9022H730.251V105.341C730.251 111.02 735.565 115.902 742.542 116.828V120.08H638.932V116.828C645.91 115.906 651.499 110.994 651.499 105.341V87.7839L700.093 72.6114V50.2861C700.093 42.6248 696.342 36.4141 691.715 36.4141C687.088 36.4141 683.336 42.6248 683.336 50.2861V61.5571H652.896V48.3353C652.896 41.7461 647.683 37.6423 645.076 36.4141V53.5374H616.311C616.311 44.0804 606.433 36.4141 594.248 36.4141C582.063 36.4141 572.186 44.0804 572.186 53.5374C572.186 57.1536 573.63 60.5081 576.096 63.2722L596.762 79.3117V105.574C596.762 111.024 601.652 115.587 608.212 116.766V120.096H554.871V116.896C561.848 115.97 567.159 111.253 567.159 105.574V47.7367C567.159 42.0572 561.848 37.3403 554.871 36.4139V32.2777H742.542V36.4139Z" fill="black"/>
<path d="M828 116.664C821.023 115.737 815.712 111.02 815.712 105.341V49.6358C815.712 40.0592 805.709 32.2958 793.37 32.2958H759.857C747.518 32.2958 737.515 39.8425 737.515 49.4191V54.6211H743.659V50.7196C743.659 42.7189 752.162 36.4141 762.65 36.4141H766.56C777.048 36.4141 785.55 42.7189 785.55 50.7196V73.0449L805.658 88.6509C809.847 91.6854 811.244 95.8531 811.244 99.4694C811.244 108.926 801.366 116.593 789.181 116.593C776.996 116.593 767.677 109.812 767.677 100.355V55.4881L738.074 77.5966V102.74C738.074 112.316 748.077 120.08 760.416 120.08H828V116.664Z" fill="black"/>
<path fill-rule="evenodd" clip-rule="evenodd" d="M877.179 36.4141C885.354 36.4141 891.98 41.5573 891.98 47.9018V102.74C891.98 112.316 901.983 120.08 914.322 120.08H947.835C960.174 120.08 970.177 112.316 970.177 102.74V53.0856C970.177 41.5937 958.174 32.2777 943.367 32.2777H848.414C844.938 29.221 842.828 25.2057 842.828 20.808C842.828 11.2314 852.831 3.46801 865.17 3.46801C877.509 3.46801 887.512 11.2314 887.512 20.808H916.557V0H865.17C850.363 0 838.36 9.31608 838.36 20.808V32.2958H823V36.4141H838.36L838.363 105.774C838.363 111.123 833.456 115.592 826.91 116.674V120.08H880.251V116.79C873.429 115.959 868.801 111.343 868.801 105.774V48.5521L853.162 36.4141H877.179ZM898.404 53.3206C898.404 43.744 908.407 35.9806 920.746 35.9806C933.085 35.9806 943.087 43.744 943.087 53.3206V96.6707C943.087 107.684 938.836 115.745 933.592 115.745C928.348 115.745 924.097 106.817 924.097 95.8037V79.3194L900.932 61.3404C899.317 58.942 898.404 56.2141 898.404 53.3206Z" fill="black"/>
<path d="M1152.54 36.4139C1145.56 37.3403 1140.25 42.0572 1140.25 47.7367L1140.25 67.8429L1093.34 82.7987V102.306C1093.34 109.968 1097.09 116.178 1101.71 116.178C1106.34 116.178 1110.09 109.968 1110.09 102.306V91.9022H1140.25V105.341C1140.25 111.02 1145.56 115.902 1152.54 116.828V120.08H1048.93V116.828C1055.91 115.906 1061.5 110.994 1061.5 105.341V87.7839L1110.09 72.6114V50.2861C1110.09 42.6248 1106.34 36.4141 1101.71 36.4141C1097.09 36.4141 1093.34 42.6248 1093.34 50.2861V61.5571H1062.9V48.3353C1062.9 41.7461 1057.68 37.6423 1055.08 36.4141V53.5374H1026.31C1026.31 44.0804 1016.43 36.4141 1004.25 36.4141C992.063 36.4141 982.186 44.0804 982.186 53.5374C982.186 57.1536 983.63 60.5081 986.096 63.2722L1006.76 79.3117V105.574C1006.76 111.024 1011.65 115.587 1018.21 116.766V120.096H964.871V116.896C971.848 115.97 977.159 111.253 977.159 105.574V47.7367C977.159 42.0572 971.848 37.3403 964.871 36.4139V32.2777H1152.54V36.4139Z" fill="black"/>
<path d="M1238 116.664C1231.02 115.737 1225.71 111.02 1225.71 105.341V49.6358C1225.71 40.0592 1215.71 32.2958 1203.37 32.2958H1169.86C1157.52 32.2958 1147.52 39.8425 1147.52 49.4191V54.6211H1153.66V50.7196C1153.66 42.7189 1162.16 36.4141 1172.65 36.4141H1176.56C1187.05 36.4141 1195.55 42.7189 1195.55 50.7196V73.0449L1215.66 88.6509C1219.85 91.6854 1221.24 95.8531 1221.24 99.4694C1221.24 108.926 1211.37 116.593 1199.18 116.593C1187 116.593 1177.68 109.812 1177.68 100.355V55.4881L1148.07 77.5966V102.74C1148.07 112.316 1158.08 120.08 1170.42 120.08H1238V116.664Z" fill="black"/>
<path fill-rule="evenodd" clip-rule="evenodd" d="M54.179 171.414C62.3536 171.414 68.9805 176.557 68.9805 182.902V237.74C68.9805 247.316 78.9833 255.08 91.3223 255.08H124.835C137.174 255.08 147.177 247.316 147.177 237.74V188.086C147.177 176.594 135.174 167.278 120.367 167.278H25.4139C21.9377 164.221 19.8284 160.206 19.8284 155.808C19.8284 146.231 29.8312 138.468 42.1703 138.468C54.5093 138.468 64.5121 146.231 64.5121 155.808H93.5565V135H42.1703C27.3634 135 15.36 144.316 15.36 155.808V167.296H0V171.414H15.36L15.3626 240.774C15.3626 246.123 10.4562 250.592 3.90982 251.674V255.08H57.251V251.79C50.4288 250.959 45.8008 246.343 45.8008 240.774V183.552L30.1615 171.414H54.179ZM75.4038 188.321C75.4038 178.744 85.4066 170.981 97.7456 170.981C110.085 170.981 120.087 178.744 120.087 188.321V231.671C120.087 242.684 115.836 250.745 110.592 250.745C105.348 250.745 101.097 241.817 101.097 230.804V214.319L77.9317 196.34C76.3169 193.942 75.4038 191.214 75.4038 188.321Z" fill="#FF0000"/>
<path d="M329.542 171.414C322.565 172.34 317.254 177.057 317.254 182.737L317.251 202.843L270.336 217.799V237.306C270.336 244.968 274.088 251.178 278.715 251.178C283.342 251.178 287.093 244.968 287.093 237.306V226.902H317.251V240.341C317.251 246.02 322.565 250.902 329.542 251.828V255.08H225.932V251.828C232.91 250.906 238.499 245.994 238.499 240.341V222.784L287.093 207.611V185.286C287.093 177.625 283.342 171.414 278.715 171.414C274.088 171.414 270.336 177.625 270.336 185.286V196.557H239.896V183.335C239.896 176.746 234.683 172.642 232.076 171.414V188.537H203.311C203.311 179.08 193.433 171.414 181.248 171.414C169.063 171.414 159.186 179.08 159.186 188.537C159.186 192.154 160.63 195.508 163.096 198.272L183.762 214.312V240.574C183.762 246.024 188.652 250.587 195.212 251.766V255.096H141.871V251.896C148.848 250.97 154.159 246.253 154.159 240.574V182.737C154.159 177.057 148.848 172.34 141.871 171.414V167.278H329.542V171.414Z" fill="#FF0000"/>
<path d="M415 251.664C408.023 250.737 402.712 246.02 402.712 240.341V184.636C402.712 175.059 392.709 167.296 380.37 167.296H346.857C334.518 167.296 324.515 174.842 324.515 184.419V189.621H330.659V185.72C330.659 177.719 339.162 171.414 349.65 171.414H353.56C364.048 171.414 372.55 177.719 372.55 185.72V208.045L392.658 223.651C396.847 226.685 398.244 230.853 398.244 234.469C398.244 243.926 388.366 251.593 376.181 251.593C363.996 251.593 354.677 244.812 354.677 235.355V190.488L325.074 212.597V237.74C325.074 247.316 335.077 255.08 347.416 255.08H415V251.664Z" fill="#FF0000"/>
<path fill-rule="evenodd" clip-rule="evenodd" d="M465.179 171.414C473.354 171.414 479.98 176.557 479.98 182.902V237.74C479.98 247.316 489.983 255.08 502.322 255.08H535.835C548.174 255.08 558.177 247.316 558.177 237.74V188.086C558.177 176.594 546.174 167.278 531.367 167.278H436.414C432.938 164.221 430.828 160.206 430.828 155.808C430.828 146.231 440.831 138.468 453.17 138.468C465.509 138.468 475.512 146.231 475.512 155.808H504.557V135H453.17C438.363 135 426.36 144.316 426.36 155.808V167.296H411V171.414H426.36L426.363 240.774C426.363 246.123 421.456 250.592 414.91 251.674V255.08H468.251V251.79C461.429 250.959 456.801 246.343 456.801 240.774V183.552L441.162 171.414H465.179ZM486.404 188.321C486.404 178.744 496.407 170.981 508.746 170.981C521.085 170.981 531.087 178.744 531.087 188.321V231.671C531.087 242.684 526.836 250.745 521.592 250.745C516.348 250.745 512.097 241.817 512.097 230.804V214.319L488.932 196.34C487.317 193.942 486.404 191.214 486.404 188.321Z" fill="#FF0000"/>
<path d="M740.542 171.414C733.565 172.34 728.254 177.057 728.254 182.737L728.251 202.843L681.336 217.799V237.306C681.336 244.968 685.088 251.178 689.715 251.178C694.342 251.178 698.093 244.968 698.093 237.306V226.902H728.251V240.341C728.251 246.02 733.565 250.902 740.542 251.828V255.08H636.932V251.828C643.91 250.906 649.499 245.994 649.499 240.341V222.784L698.093 207.611V185.286C698.093 177.625 694.342 171.414 689.715 171.414C685.088 171.414 681.336 177.625 681.336 185.286V196.557H650.896V183.335C650.896 176.746 645.683 172.642 643.076 171.414V188.537H614.311C614.311 179.08 604.433 171.414 592.248 171.414C580.063 171.414 570.186 179.08 570.186 188.537C570.186 192.154 571.63 195.508 574.096 198.272L594.762 214.312V240.574C594.762 246.024 599.652 250.587 606.212 251.766V255.096H552.871V251.896C559.848 250.97 565.159 246.253 565.159 240.574V182.737C565.159 177.057 559.848 172.34 552.871 171.414V167.278H740.542V171.414Z" fill="#FF0000"/>
<path d="M826 251.664C819.023 250.737 813.712 246.02 813.712 240.341V184.636C813.712 175.059 803.709 167.296 791.37 167.296H757.857C745.518 167.296 735.515 174.842 735.515 184.419V189.621H741.659V185.72C741.659 177.719 750.162 171.414 760.65 171.414H764.56C775.048 171.414 783.55 177.719 783.55 185.72V208.045L803.658 223.651C807.847 226.685 809.244 230.853 809.244 234.469C809.244 243.926 799.366 251.593 787.181 251.593C774.996 251.593 765.677 244.812 765.677 235.355V190.488L736.074 212.597V237.74C736.074 247.316 746.077 255.08 758.416 255.08H826V251.664Z" fill="#FF0000"/>
<path fill-rule="evenodd" clip-rule="evenodd" d="M875.179 171.414C883.354 171.414 889.98 176.557 889.98 182.902V237.74C889.98 247.316 899.983 255.08 912.322 255.08H945.835C958.174 255.08 968.177 247.316 968.177 237.74V188.086C968.177 176.594 956.174 167.278 941.367 167.278H846.414C842.938 164.221 840.828 160.206 840.828 155.808C840.828 146.231 850.831 138.468 863.17 138.468C875.509 138.468 885.512 146.231 885.512 155.808H914.557V135H863.17C848.363 135 836.36 144.316 836.36 155.808V167.296H821V171.414H836.36L836.363 240.774C836.363 246.123 831.456 250.592 824.91 251.674V255.08H878.251V251.79C871.429 250.959 866.801 246.343 866.801 240.774V183.552L851.162 171.414H875.179ZM896.404 188.321C896.404 178.744 906.407 170.981 918.746 170.981C931.085 170.981 941.087 178.744 941.087 188.321V231.671C941.087 242.684 936.836 250.745 931.592 250.745C926.348 250.745 922.097 241.817 922.097 230.804V214.319L898.932 196.34C897.317 193.942 896.404 191.214 896.404 188.321Z" fill="#FF0000"/>
<path d="M1150.54 171.414C1143.56 172.34 1138.25 177.057 1138.25 182.737L1138.25 202.843L1091.34 217.799V237.306C1091.34 244.968 1095.09 251.178 1099.71 251.178C1104.34 251.178 1108.09 244.968 1108.09 237.306V226.902H1138.25V240.341C1138.25 246.02 1143.56 250.902 1150.54 251.828V255.08H1046.93V251.828C1053.91 250.906 1059.5 245.994 1059.5 240.341V222.784L1108.09 207.611V185.286C1108.09 177.625 1104.34 171.414 1099.71 171.414C1095.09 171.414 1091.34 177.625 1091.34 185.286V196.557H1060.9V183.335C1060.9 176.746 1055.68 172.642 1053.08 171.414V188.537H1024.31C1024.31 179.08 1014.43 171.414 1002.25 171.414C990.063 171.414 980.186 179.08 980.186 188.537C980.186 192.154 981.63 195.508 984.096 198.272L1004.76 214.312V240.574C1004.76 246.024 1009.65 250.587 1016.21 251.766V255.096H962.871V251.896C969.848 250.97 975.159 246.253 975.159 240.574V182.737C975.159 177.057 969.848 172.34 962.871 171.414V167.278H1150.54V171.414Z" fill="#FF0000"/>
<path d="M1236 251.664C1229.02 250.737 1223.71 246.02 1223.71 240.341V184.636C1223.71 175.059 1213.71 167.296 1201.37 167.296H1167.86C1155.52 167.296 1145.52 174.842 1145.52 184.419V189.621H1151.66V185.72C1151.66 177.719 1160.16 171.414 1170.65 171.414H1174.56C1185.05 171.414 1193.55 177.719 1193.55 185.72V208.045L1213.66 223.651C1217.85 226.685 1219.24 230.853 1219.24 234.469C1219.24 243.926 1209.37 251.593 1197.18 251.593C1185 251.593 1175.68 244.812 1175.68 235.355V190.488L1146.07 212.597V237.74C1146.07 247.316 1156.08 255.08 1168.42 255.08H1236V251.664Z" fill="#FF0000"/>
<path fill-rule="evenodd" clip-rule="evenodd" d="M54.179 306.414C62.3536 306.414 68.9805 311.557 68.9805 317.902V372.74C68.9805 382.316 78.9833 390.08 91.3223 390.08H124.835C137.174 390.08 147.177 382.316 147.177 372.74V323.086C147.177 311.594 135.174 302.278 120.367 302.278H25.4139C21.9377 299.221 19.8284 295.206 19.8284 290.808C19.8284 281.231 29.8312 273.468 42.1703 273.468C54.5093 273.468 64.5121 281.231 64.5121 290.808H93.5565V270H42.1703C27.3634 270 15.36 279.316 15.36 290.808V302.296H0V306.414H15.36L15.3626 375.774C15.3626 381.123 10.4562 385.592 3.90982 386.674V390.08H57.251V386.79C50.4288 385.959 45.8008 381.343 45.8008 375.774V318.552L30.1615 306.414H54.179ZM75.4038 323.321C75.4038 313.744 85.4066 305.981 97.7456 305.981C110.085 305.981 120.087 313.744 120.087 323.321V366.671C120.087 377.684 115.836 385.745 110.592 385.745C105.348 385.745 101.097 376.817 101.097 365.804V349.319L77.9317 331.34C76.3169 328.942 75.4038 326.214 75.4038 323.321Z" fill="#FFB800"/>
<path d="M329.542 306.414C322.565 307.34 317.254 312.057 317.254 317.737L317.251 337.843L270.336 352.799V372.306C270.336 379.968 274.088 386.178 278.715 386.178C283.342 386.178 287.093 379.968 287.093 372.306V361.902H317.251V375.341C317.251 381.02 322.565 385.902 329.542 386.828V390.08H225.932V386.828C232.91 385.906 238.499 380.994 238.499 375.341V357.784L287.093 342.611V320.286C287.093 312.625 283.342 306.414 278.715 306.414C274.088 306.414 270.336 312.625 270.336 320.286V331.557H239.896V318.335C239.896 311.746 234.683 307.642 232.076 306.414V323.537H203.311C203.311 314.08 193.433 306.414 181.248 306.414C169.063 306.414 159.186 314.08 159.186 323.537C159.186 327.154 160.63 330.508 163.096 333.272L183.762 349.312V375.574C183.762 381.024 188.652 385.587 195.212 386.766V390.096H141.871V386.896C148.848 385.97 154.159 381.253 154.159 375.574V317.737C154.159 312.057 148.848 307.34 141.871 306.414V302.278H329.542V306.414Z" fill="#FFB800"/>
<path d="M415 386.664C408.023 385.737 402.712 381.02 402.712 375.341V319.636C402.712 310.059 392.709 302.296 380.37 302.296H346.857C334.518 302.296 324.515 309.842 324.515 319.419V324.621H330.659V320.72C330.659 312.719 339.162 306.414 349.65 306.414H353.56C364.048 306.414 372.55 312.719 372.55 320.72V343.045L392.658 358.651C396.847 361.685 398.244 365.853 398.244 369.469C398.244 378.926 388.366 386.593 376.181 386.593C363.996 386.593 354.677 379.812 354.677 370.355V325.488L325.074 347.597V372.74C325.074 382.316 335.077 390.08 347.416 390.08H415V386.664Z" fill="#FFB800"/>
<path fill-rule="evenodd" clip-rule="evenodd" d="M465.179 306.414C473.354 306.414 479.98 311.557 479.98 317.902V372.74C479.98 382.316 489.983 390.08 502.322 390.08H535.835C548.174 390.08 558.177 382.316 558.177 372.74V323.086C558.177 311.594 546.174 302.278 531.367 302.278H436.414C432.938 299.221 430.828 295.206 430.828 290.808C430.828 281.231 440.831 273.468 453.17 273.468C465.509 273.468 475.512 281.231 475.512 290.808H504.557V270H453.17C438.363 270 426.36 279.316 426.36 290.808V302.296H411V306.414H426.36L426.363 375.774C426.363 381.123 421.456 385.592 414.91 386.674V390.08H468.251V386.79C461.429 385.959 456.801 381.343 456.801 375.774V318.552L441.162 306.414H465.179ZM486.404 323.321C486.404 313.744 496.407 305.981 508.746 305.981C521.085 305.981 531.087 313.744 531.087 323.321V366.671C531.087 377.684 526.836 385.745 521.592 385.745C516.348 385.745 512.097 376.817 512.097 365.804V349.319L488.932 331.34C487.317 328.942 486.404 326.214 486.404 323.321Z" fill="#FFB800"/>
<path d="M740.542 306.414C733.565 307.34 728.254 312.057 728.254 317.737L728.251 337.843L681.336 352.799V372.306C681.336 379.968 685.088 386.178 689.715 386.178C694.342 386.178 698.093 379.968 698.093 372.306V361.902H728.251V375.341C728.251 381.02 733.565 385.902 740.542 386.828V390.08H636.932V386.828C643.91 385.906 649.499 380.994 649.499 375.341V357.784L698.093 342.611V320.286C698.093 312.625 694.342 306.414 689.715 306.414C685.088 306.414 681.336 312.625 681.336 320.286V331.557H650.896V318.335C650.896 311.746 645.683 307.642 643.076 306.414V323.537H614.311C614.311 314.08 604.433 306.414 592.248 306.414C580.063 306.414 570.186 314.08 570.186 323.537C570.186 327.154 571.63 330.508 574.096 333.272L594.762 349.312V375.574C594.762 381.024 599.652 385.587 606.212 386.766V390.096H552.871V386.896C559.848 385.97 565.159 381.253 565.159 375.574V317.737C565.159 312.057 559.848 307.34 552.871 306.414V302.278H740.542V306.414Z" fill="#FFB800"/>
<path d="M826 386.664C819.023 385.737 813.712 381.02 813.712 375.341V319.636C813.712 310.059 803.709 302.296 791.37 302.296H757.857C745.518 302.296 735.515 309.842 735.515 319.419V324.621H741.659V320.72C741.659 312.719 750.162 306.414 760.65 306.414H764.56C775.048 306.414 783.55 312.719 783.55 320.72V343.045L803.658 358.651C807.847 361.685 809.244 365.853 809.244 369.469C809.244 378.926 799.366 386.593 787.181 386.593C774.996 386.593 765.677 379.812 765.677 370.355V325.488L736.074 347.597V372.74C736.074 382.316 746.077 390.08 758.416 390.08H826V386.664Z" fill="#FFB800"/>
<path fill-rule="evenodd" clip-rule="evenodd" d="M875.179 306.414C883.354 306.414 889.98 311.557 889.98 317.902V372.74C889.98 382.316 899.983 390.08 912.322 390.08H945.835C958.174 390.08 968.177 382.316 968.177 372.74V323.086C968.177 311.594 956.174 302.278 941.367 302.278H846.414C842.938 299.221 840.828 295.206 840.828 290.808C840.828 281.231 850.831 273.468 863.17 273.468C875.509 273.468 885.512 281.231 885.512 290.808H914.557V270H863.17C848.363 270 836.36 279.316 836.36 290.808V302.296H821V306.414H836.36L836.363 375.774C836.363 381.123 831.456 385.592 824.91 386.674V390.08H878.251V386.79C871.429 385.959 866.801 381.343 866.801 375.774V318.552L851.162 306.414H875.179ZM896.404 323.321C896.404 313.744 906.407 305.981 918.746 305.981C931.085 305.981 941.087 313.744 941.087 323.321V366.671C941.087 377.684 936.836 385.745 931.592 385.745C926.348 385.745 922.097 376.817 922.097 365.804V349.319L898.932 331.34C897.317 328.942 896.404 326.214 896.404 323.321Z" fill="#FFB800"/>
<path d="M1150.54 306.414C1143.56 307.34 1138.25 312.057 1138.25 317.737L1138.25 337.843L1091.34 352.799V372.306C1091.34 379.968 1095.09 386.178 1099.71 386.178C1104.34 386.178 1108.09 379.968 1108.09 372.306V361.902H1138.25V375.341C1138.25 381.02 1143.56 385.902 1150.54 386.828V390.08H1046.93V386.828C1053.91 385.906 1059.5 380.994 1059.5 375.341V357.784L1108.09 342.611V320.286C1108.09 312.625 1104.34 306.414 1099.71 306.414C1095.09 306.414 1091.34 312.625 1091.34 320.286V331.557H1060.9V318.335C1060.9 311.746 1055.68 307.642 1053.08 306.414V323.537H1024.31C1024.31 314.08 1014.43 306.414 1002.25 306.414C990.063 306.414 980.186 314.08 980.186 323.537C980.186 327.154 981.63 330.508 984.096 333.272L1004.76 349.312V375.574C1004.76 381.024 1009.65 385.587 1016.21 386.766V390.096H962.871V386.896C969.848 385.97 975.159 381.253 975.159 375.574V317.737C975.159 312.057 969.848 307.34 962.871 306.414V302.278H1150.54V306.414Z" fill="#FFB800"/>
<path d="M1236 386.664C1229.02 385.737 1223.71 381.02 1223.71 375.341V319.636C1223.71 310.059 1213.71 302.296 1201.37 302.296H1167.86C1155.52 302.296 1145.52 309.842 1145.52 319.419V324.621H1151.66V320.72C1151.66 312.719 1160.16 306.414 1170.65 306.414H1174.56C1185.05 306.414 1193.55 312.719 1193.55 320.72V343.045L1213.66 358.651C1217.85 361.685 1219.24 365.853 1219.24 369.469C1219.24 378.926 1209.37 386.593 1197.18 386.593C1185 386.593 1175.68 379.812 1175.68 370.355V325.488L1146.07 347.597V372.74C1146.07 382.316 1156.08 390.08 1168.42 390.08H1236V386.664Z" fill="#FFB800"/>
</svg>
