<svg width="416" height="142" viewBox="0 0 416 142" fill="none" xmlns="http://www.w3.org/2000/svg">
<path d="M36.0902 8.50046C27.2537 8.50046 20.0902 15.6639 20.0902 24.5005C20.0902 27.9591 21.1876 31.1614 23.0532 33.7782H111.457C126.264 33.7782 138.267 43.0941 138.267 54.5861V104.24C138.267 113.817 128.264 121.58 115.925 121.58H87.4126C75.0735 121.58 65.0707 113.817 65.0707 104.24V53.4023C65.0707 47.0578 58.4438 41.9145 50.2692 41.9145H29.2284L41.891 54.5771V102.275C41.891 107.844 46.519 112.459 53.3412 113.291V121.58H0V113.175C6.54642 112.093 11.4528 107.623 11.4528 102.275L11.4502 41.9145H0.0901794V33.7963H11.4502V25.0005C11.4502 11.1933 22.7831 0 36.5902 0H95.6467V22.3085H51.9413C50.8728 14.509 44.1832 8.50046 36.0902 8.50046Z" fill="#674EFF"/>
<path d="M325.633 41.9144C318.655 42.8407 313.345 47.5576 313.345 53.2372L313.341 73.3433L266.427 88.2991V99.8067C266.427 107.468 270.178 113.679 274.805 113.679C279.432 113.679 283.183 107.468 283.183 99.8067V93.4026H313.341V101.841C313.341 107.521 318.655 112.403 325.633 113.329V121.58H222.022V113.329C229 112.407 234.59 107.495 234.59 101.841V85.2844L283.183 70.1118V55.7866C283.183 48.1252 279.432 41.9145 274.805 41.9145C270.178 41.9145 266.427 48.1252 266.427 55.7866V63.0576H235.986V53.8358C235.986 47.2466 230.773 43.1428 228.166 41.9145V61.5756L197 61.5378C197 50.7683 188.27 42 177.5 42C166.73 42 158 50.7304 158 61.5C158 66.8768 160.176 71.7453 163.696 75.2728L179.852 87.8121V102.074C179.852 107.524 184.742 112.088 191.302 113.266V121.596H137.961V113.397C144.939 112.471 150.249 107.754 150.249 102.074V53.2372C150.249 47.5576 144.939 42.8407 137.961 41.9144V33.7782H325.633V41.9144Z" fill="#674EFF"/>
<path d="M376.394 113.204C386.335 113.204 394.394 105.593 394.394 96.2037C394.394 92.5715 394.394 89.7037 391.133 86.4429L372.894 68.2037V54.7037C372.894 47.8002 367.298 42.2037 360.394 42.2037H347.894C340.991 42.2037 335.394 47.8002 335.394 54.7037V60.3253H325V53.7037C325 42.658 333.849 34 344.894 34H380.855C393.194 34 403.196 41.7634 403.196 51.34V102.045C403.196 107.724 408.507 112.441 415.484 113.368V121.784H347.9C335.561 121.784 325.559 114.021 325.559 104.444V79.3008L354.394 57.7653V93.2037C354.394 104.249 363.349 113.204 374.394 113.204H376.394Z" fill="#674EFF"/>
<path d="M71.1819 70.6451L115.071 11.404C115.733 10.5105 117.14 11.2027 116.836 12.2725L104.25 56.5922C104.069 57.2307 104.549 57.8654 105.212 57.8654H127.98C128.808 57.8654 129.277 58.8134 128.776 59.4716L84.3614 117.736C83.6899 118.617 82.297 117.915 82.6057 116.851L95.1843 73.5192C95.3701 72.8794 94.8901 72.2404 94.224 72.2404H71.9854C71.164 72.2404 70.6929 71.3051 71.1819 70.6451Z" fill="#FF0000"/>
<path d="M174.602 124.325C173.231 124.325 172.119 125.442 172.119 126.82C172.119 127.359 172.289 127.859 172.579 128.267H186.301C188.6 128.267 190.463 129.719 190.463 131.511V139.253C190.463 140.746 188.91 141.957 186.995 141.957H182.569C180.654 141.957 179.101 140.746 179.101 139.253V131.326C179.101 130.337 178.072 129.535 176.803 129.535H173.537L175.503 131.51V138.947C175.503 139.815 176.221 140.535 177.28 140.664V141.957H169V140.646C170.016 140.477 170.778 139.781 170.778 138.947L170.777 129.535H169.014V128.27H170.777V126.898C170.777 124.745 172.537 123 174.68 123H183.847V126.478H177.063C176.897 125.262 175.859 124.325 174.602 124.325Z" fill="black"/>
<path d="M219.548 129.535C218.465 129.68 217.64 130.415 217.64 131.301L217.64 134.436L210.357 136.768V138.562C210.357 139.756 210.94 140.725 211.658 140.725C212.376 140.725 212.958 139.756 212.958 138.562V137.563H217.64V138.879C217.64 139.765 218.465 140.526 219.548 140.67V141.957H203.464V140.67C204.548 140.526 205.415 139.761 205.415 138.879V136.298L212.958 133.932V131.698C212.958 130.504 212.376 129.535 211.658 129.535C210.94 129.535 210.357 130.504 210.357 131.698V132.832H205.632V131.394C205.632 130.367 204.823 129.727 204.418 129.535V132.601L199.58 132.595C199.58 130.916 198.225 129.549 196.553 129.549C194.881 129.549 193.526 130.91 193.526 132.589C193.526 133.427 193.864 134.186 194.41 134.737L196.918 136.692V138.915C196.918 139.765 197.677 140.477 198.696 140.66V141.959H190.416V140.681C191.499 140.536 192.323 139.801 192.323 138.915V131.301C192.323 130.415 191.499 129.68 190.416 129.535V128.267H219.548V129.535Z" fill="black"/>
<path d="M227.427 140.651C228.971 140.651 230.222 139.464 230.222 138C230.222 137.434 230.222 136.987 229.715 136.478L226.884 133.634V131.529C226.884 130.453 226.015 129.58 224.944 129.58H223.003C221.932 129.58 221.063 130.453 221.063 131.529V132.406H219.45V131.373C219.45 129.651 220.823 128.301 222.538 128.301H228.12C230.035 128.301 231.588 129.512 231.588 131.005V138.911C231.588 139.796 232.412 140.532 233.495 140.676V141.989H223.004C221.089 141.989 219.536 140.778 219.536 139.285V135.365L224.012 132.007V137.532C224.012 139.255 225.402 140.651 227.117 140.651H227.427Z" fill="black"/>
<path d="M239.097 124.325C237.726 124.325 236.614 125.442 236.614 126.82C236.614 127.359 236.784 127.859 237.074 128.267H250.797C253.095 128.267 254.958 129.719 254.958 131.511V139.253C254.958 140.746 253.406 141.957 251.49 141.957H247.064C245.149 141.957 243.596 140.746 243.596 139.253V131.326C243.596 130.337 242.567 129.535 241.298 129.535H238.032L239.998 131.51V138.947C239.998 139.815 240.716 140.535 241.775 140.664V141.957H233.495V140.646C234.511 140.477 235.273 139.781 235.273 138.947L235.273 129.535H233.509V128.27H235.273V126.898C235.273 124.745 237.032 123 239.175 123H248.342V126.478H241.558C241.392 125.262 240.354 124.325 239.097 124.325Z" fill="black"/>
<path d="M284.043 129.535C282.96 129.68 282.135 130.415 282.135 131.301L282.135 134.436L274.852 136.768V138.562C274.852 139.756 275.435 140.725 276.153 140.725C276.871 140.725 277.453 139.756 277.453 138.562V137.563H282.135V138.879C282.135 139.765 282.96 140.526 284.043 140.67V141.957H267.96V140.67C269.043 140.526 269.91 139.761 269.91 138.879V136.298L277.453 133.932V131.698C277.453 130.504 276.871 129.535 276.153 129.535C275.435 129.535 274.852 130.504 274.852 131.698V132.832H270.127V131.394C270.127 130.367 269.318 129.727 268.913 129.535V132.601L264.075 132.595C264.075 130.916 262.72 129.549 261.048 129.549C259.377 129.549 258.021 130.91 258.021 132.589C258.021 133.427 258.359 134.186 258.906 134.737L261.413 136.692V138.915C261.413 139.765 262.172 140.477 263.191 140.66V141.959H254.911V140.681C255.994 140.536 256.818 139.801 256.818 138.915V131.301C256.818 130.415 255.994 129.68 254.911 129.535V128.267H284.043V129.535Z" fill="black"/>
<path d="M291.923 140.651C293.466 140.651 294.717 139.464 294.717 138C294.717 137.434 294.717 136.987 294.211 136.478L291.379 133.634V131.529C291.379 130.453 290.511 129.58 289.439 129.58H287.499C286.427 129.58 285.558 130.453 285.558 131.529V132.406H283.945V131.373C283.945 129.651 285.318 128.301 287.033 128.301H292.615C294.53 128.301 296.083 129.512 296.083 131.005V138.911C296.083 139.796 296.907 140.532 297.991 140.676V141.989H287.5C285.584 141.989 284.031 140.778 284.031 139.285V135.365L288.508 132.007V137.532C288.508 139.255 289.898 140.651 291.612 140.651H291.923Z" fill="black"/>
<path d="M303.593 124.325C302.222 124.325 301.11 125.442 301.11 126.82C301.11 127.359 301.28 127.859 301.57 128.267H315.293C317.591 128.267 319.454 129.719 319.454 131.511V139.253C319.454 140.746 317.902 141.957 315.986 141.957H311.56C309.645 141.957 308.092 140.746 308.092 139.253V131.326C308.092 130.337 307.063 129.535 305.794 129.535H302.528L304.494 131.51V138.947C304.494 139.815 305.212 140.535 306.271 140.664V141.957H297.991V140.646C299.007 140.477 299.769 139.781 299.769 138.947L299.769 129.535H298.005V128.27H299.769V126.898C299.769 124.745 301.528 123 303.671 123H312.838V126.478H306.054C305.888 125.262 304.85 124.325 303.593 124.325Z" fill="black"/>
<path d="M348.539 129.535C347.456 129.68 346.632 130.415 346.632 131.301L346.631 134.436L339.348 136.768V138.562C339.348 139.756 339.931 140.725 340.649 140.725C341.367 140.725 341.95 139.756 341.95 138.562V137.563H346.631V138.879C346.631 139.765 347.456 140.526 348.539 140.67V141.957H332.456V140.67C333.539 140.526 334.406 139.761 334.406 138.879V136.298L341.95 133.932V131.698C341.95 130.504 341.367 129.535 340.649 129.535C339.931 129.535 339.348 130.504 339.348 131.698V132.832H334.623V131.394C334.623 130.367 333.814 129.727 333.409 129.535V132.601L328.571 132.595C328.571 130.916 327.216 129.549 325.544 129.549C323.873 129.549 322.517 130.91 322.517 132.589C322.517 133.427 322.855 134.186 323.402 134.737L325.91 136.692V138.915C325.91 139.765 326.669 140.477 327.687 140.66V141.959H319.407V140.681C320.49 140.536 321.314 139.801 321.314 138.915V131.301C321.314 130.415 320.49 129.68 319.407 129.535V128.267H348.539V129.535Z" fill="black"/>
<path d="M356.419 140.651C357.962 140.651 359.213 139.464 359.213 138C359.213 137.434 359.213 136.987 358.707 136.478L355.875 133.634V131.529C355.875 130.453 355.007 129.58 353.935 129.58H351.995C350.923 129.58 350.054 130.453 350.054 131.529V132.406H348.441V131.373C348.441 129.651 349.814 128.301 351.529 128.301H357.111C359.026 128.301 360.579 129.512 360.579 131.005V138.911C360.579 139.796 361.404 140.532 362.487 140.676V141.989H351.996C350.08 141.989 348.527 140.778 348.527 139.285V135.365L353.004 132.007V137.532C353.004 139.255 354.394 140.651 356.108 140.651H356.419Z" fill="black"/>
<path d="M373.489 138.466C373.489 139.654 374.071 140.616 374.788 140.616C375.505 140.616 376.086 139.654 376.086 138.466V136.257L379.533 132.81V139.241C379.533 140.725 377.959 141.99 376.046 141.99H368.065V140.712C369.147 140.569 370.013 139.807 370.013 138.931V131.493C370.013 129.714 371.782 128.241 374.073 128.238H375.659C378.681 128.238 379.533 129.789 379.533 131.57V131.803H377.829C377.829 130.604 376.857 129.633 375.659 129.633C374.461 129.633 373.489 130.604 373.489 131.803V138.466Z" fill="black"/>
<path fill-rule="evenodd" clip-rule="evenodd" d="M381.394 139.313L381.394 131.254C381.394 130.374 380.571 129.643 379.489 129.499V128.238L388.582 128.238C390.877 128.238 392.737 129.682 392.737 131.463V139.313C392.737 140.797 391.187 142 389.275 142H384.856C382.944 142 381.394 140.797 381.394 139.313ZM382.788 131.984C382.788 130.685 383.968 129.633 385.423 129.633C386.878 129.633 388.057 130.685 388.057 131.984V137.862C388.057 139.355 387.571 140.636 386.952 140.636C386.334 140.636 385.818 139.237 385.818 137.744V135.509L383.086 133.071C382.896 132.746 382.788 132.376 382.788 131.984Z" fill="black"/>
<path fill-rule="evenodd" clip-rule="evenodd" d="M412.824 131.469V138.894C412.824 139.774 413.648 140.53 414.729 140.674V141.953H392.938V140.674C394.02 140.531 394.886 139.77 394.886 138.894V131.26C394.886 130.38 394.053 129.649 392.971 129.505V128.244L408.728 128.244C411.023 128.244 412.824 129.688 412.824 131.469ZM398.75 129.632C397.295 129.632 396.115 130.685 396.115 131.983C396.115 132.376 396.223 132.746 396.414 133.071L399.145 135.508V137.743C399.145 139.237 399.661 140.635 400.28 140.635C400.898 140.635 401.385 139.354 401.385 137.861V131.983C401.385 130.685 400.205 129.632 398.75 129.632ZM403.709 131.983C403.709 130.685 404.889 129.632 406.344 129.632C407.799 129.632 408.978 130.685 408.978 131.983V137.861C408.978 139.354 408.492 140.635 407.873 140.635C407.255 140.635 406.739 139.237 406.739 137.743V135.508L404.007 133.071C403.817 132.746 403.709 132.376 403.709 131.983Z" fill="black"/>
<circle cx="365.276" cy="135.057" r="2.78948" fill="black"/>
</svg>
