<svg width="44" height="361" viewBox="0 0 44 361" fill="none" xmlns="http://www.w3.org/2000/svg">
<path d="M11 0.566705L15.092 0.566705L15.092 33.9151C15.092 34.9324 15.268 35.7024 15.62 36.2255C15.972 36.7776 16.6613 37.0538 17.688 37.0538C18.48 37.0538 19.0667 36.7923 19.448 36.2691C19.8587 35.746 20.064 35.0485 20.064 34.1767L20.064 9.63399C20.064 6.43718 20.856 4.02507 22.44 2.3976C24.0533 0.7992 26.136 0 28.688 0C31.5333 0 33.6893 0.973571 35.156 2.92071C36.652 4.86785 37.4 7.91934 37.4 12.0752V56.4962H33.308V14.9959C33.308 14.0078 33.1467 13.1941 32.824 12.5547C32.5307 11.9444 31.8853 11.6393 30.888 11.6393C30.0667 11.6393 29.436 11.9153 28.996 12.4675C28.5853 13.0197 28.38 13.7898 28.38 14.7779V38.0128C28.38 41.9652 27.6173 44.7551 26.092 46.3826C24.5667 48.0102 22.616 48.8238 20.24 48.8238C17.2187 48.8238 14.916 47.8358 13.332 45.8595C11.7773 43.8833 11 40.701 11 36.3127V0.566705ZM33.22 46.6606H37.4V55.1175H42.548L42.548 68.4133H37.4V99.6257H33.22L33.22 68.4133H18.128C17.0133 68.4133 16.236 68.7621 15.796 69.4595C15.3853 70.186 15.18 71.3776 15.18 73.0341V83.0605H11V67.5851C11 63.2548 11.5573 60.0871 12.672 58.0818C13.816 56.1056 15.62 55.1175 18.084 55.1175H33.22V46.6606ZM39.688 102.912V89.6164H44V102.912H39.688ZM11 89.6164H37.4V102.912H11V89.6164ZM44 111.626V124.921H11V111.626H44ZM44 133.635V146.931H11V133.635H44ZM39.688 187.245V173.95H44L44 187.245H39.688ZM11 173.95H37.4V187.245H11L11 173.95ZM28.908 213.828C30.1987 213.828 31.3573 214.046 32.384 214.482C33.44 214.947 34.3347 215.775 35.068 216.967C35.8013 218.188 36.3733 219.845 36.784 221.937C37.1947 224.058 37.4 226.745 37.4 230.002V246.349H33.22V234.971C33.22 232.064 32.8827 230.03 32.208 228.868C31.5333 227.704 30.36 227.125 28.688 227.125H11V213.828H28.908ZM37.4 302.167H11L11 265.724C11 263.021 11.176 260.724 11.528 258.836C11.9093 256.975 12.4813 255.479 13.244 254.346C14.0067 253.213 14.9893 252.397 16.192 251.905C17.3947 251.41 18.8173 251.164 20.46 251.164H37.4V264.46H19.932C18.2013 264.46 17.0133 264.924 16.368 265.855C15.7227 266.783 15.4 268.47 15.4 270.911V288.871H37.4L37.4 302.167ZM11 309.997H37.4V346.44C37.4 349.143 37.2093 351.425 36.828 353.284C36.476 355.174 35.9187 356.684 35.156 357.818C34.3933 358.951 33.4107 359.764 32.208 360.259C31.0053 360.754 29.5827 361 27.94 361H11V347.704H28.468C30.1987 347.704 31.3867 347.24 32.032 346.309C32.6773 345.379 33 343.694 33 341.252V323.292H11V309.997Z" fill="black"/>
<path d="M0.127785 212.342H5.09174V211H6.02556V212.342C6.28113 212.346 6.50066 212.388 6.68414 212.466C6.87418 212.549 7.02818 212.685 7.14613 212.874C7.26409 213.064 7.35256 213.319 7.41153 213.642C7.47051 213.965 7.5 214.366 7.5 214.846V217.225H6.64482V214.949C6.64482 214.765 6.59567 214.636 6.49738 214.562C6.40563 214.488 6.25819 214.451 6.05505 214.451H6.02556V217.225H5.09174V214.451H0.127785V212.342ZM-1.80434e-07 222.874V220.799C-1.80434e-07 220.139 0.0556851 219.591 0.167104 219.152C0.285059 218.719 0.455455 218.373 0.678244 218.115C0.907618 217.861 1.18938 217.684 1.52359 217.582C1.86433 217.481 2.25428 217.43 2.69332 217.43H3.46003C3.89908 217.43 4.28571 217.481 4.61992 217.582C4.96068 217.684 5.24247 217.861 5.46527 218.115C5.69463 218.373 5.865 218.719 5.97641 219.152C6.09436 219.591 6.15334 220.139 6.15334 220.799V222.874C6.15334 223.533 6.09436 224.08 5.97641 224.513C5.865 224.951 5.69463 225.297 5.46527 225.551C5.24247 225.809 4.96068 225.989 4.61992 226.09C4.28571 226.191 3.89908 226.242 3.46003 226.242H2.69332C2.25428 226.242 1.86433 226.191 1.52359 226.09C1.18938 225.989 0.907618 225.809 0.678244 225.551C0.455455 225.297 0.285059 224.951 0.167104 224.513C0.0556851 224.08 -1.80434e-07 223.533 -1.80434e-07 222.874ZM0.933814 220.778V222.894C0.933814 223.296 1.05506 223.579 1.29751 223.745C1.53996 223.911 1.92661 223.994 2.4574 223.994H3.70577C4.23001 223.994 4.61337 223.911 4.85583 223.745C5.09829 223.579 5.21953 223.296 5.21953 222.894L5.21953 220.778C5.21953 220.377 5.09829 220.093 4.85583 219.927C4.61337 219.761 4.23001 219.678 3.70577 219.678H2.4574C1.92661 219.678 1.53996 219.761 1.29751 219.927C1.05506 220.093 0.933814 220.377 0.933814 220.778ZM4.12844 227.244C4.41678 227.244 4.67562 227.278 4.90498 227.347C5.14089 227.421 5.34076 227.553 5.50459 227.742C5.66841 227.935 5.7962 228.198 5.88794 228.53C5.97969 228.867 6.02556 229.293 6.02556 229.81L6.02556 232.404H5.09174V230.598C5.09174 230.137 5.01638 229.814 4.86566 229.63C4.71494 229.445 4.45282 229.353 4.07929 229.353H0.127785V227.244H4.12844ZM0.127785 240.61V233.887C0.127785 233.513 0.209715 233.244 0.373526 233.078C0.543922 232.916 0.766711 232.836 1.04194 232.836C1.29751 232.836 1.52359 232.905 1.72018 233.043C1.91678 233.181 2.12649 233.444 2.34928 233.832L4.65924 237.795C4.68545 237.846 4.71494 237.885 4.74771 237.912C4.78047 237.94 4.82962 237.954 4.89515 237.954C4.96724 237.954 5.01638 237.933 5.04259 237.892C5.07536 237.855 5.09174 237.804 5.09174 237.74V232.905H6.02556V239.462C6.02556 239.845 5.96003 240.137 5.82896 240.34C5.6979 240.548 5.46527 240.651 5.13106 240.651C4.86238 240.651 4.62975 240.568 4.43316 240.402C4.23657 240.241 4.02359 239.969 3.79423 239.586L1.44495 235.644C1.41217 235.588 1.37944 235.545 1.34666 235.512C1.31388 235.48 1.27456 235.464 1.2287 235.464C1.16319 235.464 1.11728 235.482 1.09109 235.519C1.07143 235.561 1.0616 235.611 1.0616 235.671V240.61H0.127785ZM6.02556 246.08C6.02556 246.698 5.98624 247.203 5.9076 247.595C5.82896 247.987 5.70773 248.294 5.54391 248.515C5.38663 248.736 5.18676 248.888 4.9443 248.971C4.70184 249.054 4.41678 249.096 4.08912 249.096H0.127785L0.127785 243.258C0.127785 242.885 0.153981 242.571 0.206422 242.318C0.2654 242.069 0.34733 241.87 0.452163 241.723C0.556996 241.575 0.688074 241.471 0.845348 241.411C1.00916 241.351 1.19268 241.321 1.39581 241.321C1.71689 241.321 2.01178 241.439 2.28047 241.674C2.54916 241.909 2.81127 242.271 3.06684 242.76L5.05242 246.558C5.06553 246.461 5.07536 246.343 5.08191 246.205C5.08846 246.066 5.09174 245.9 5.09174 245.707V241.453H6.02556V246.08ZM1.0616 244.517V247.021H4.18742C4.21363 247.021 4.23657 247.021 4.25623 247.021C4.28244 247.021 4.30537 247.021 4.32503 247.021L2.87025 244.406C2.73263 244.162 2.5819 243.989 2.41809 243.888C2.26081 243.791 2.07076 243.742 1.84797 243.742C1.60552 243.742 1.41217 243.802 1.26802 243.922C1.13041 244.047 1.0616 244.245 1.0616 244.517ZM0.127785 251.026H5.09174L5.09174 249.684H6.02556V251.026C6.28113 251.031 6.50066 251.072 6.68414 251.15C6.87418 251.233 7.02818 251.37 7.14613 251.558C7.26409 251.748 7.35256 252.003 7.41153 252.326C7.47051 252.649 7.5 253.05 7.5 253.53V255.909H6.64482V253.633C6.64482 253.449 6.59567 253.32 6.49738 253.246C6.40563 253.172 6.25819 253.135 6.05505 253.135H6.02556V255.909H5.09174V253.135H0.127785V251.026ZM-1.80434e-07 261.558V259.483C-1.80434e-07 258.823 0.0556851 258.275 0.167104 257.836C0.285059 257.403 0.455455 257.057 0.678244 256.799C0.907618 256.545 1.18938 256.368 1.52359 256.266C1.86433 256.165 2.25428 256.114 2.69332 256.114H3.46003C3.89908 256.114 4.28571 256.165 4.61992 256.266C4.96068 256.368 5.24247 256.545 5.46527 256.799C5.69463 257.057 5.865 257.403 5.97641 257.836C6.09436 258.275 6.15334 258.823 6.15334 259.483L6.15334 261.558C6.15334 262.217 6.09436 262.764 5.97641 263.197C5.865 263.635 5.69463 263.981 5.46527 264.234C5.24247 264.493 4.96068 264.673 4.61992 264.774C4.28571 264.876 3.89908 264.926 3.46003 264.926H2.69332C2.25428 264.926 1.86433 264.876 1.52359 264.774C1.18938 264.673 0.907618 264.493 0.678244 264.234C0.455455 263.981 0.285059 263.635 0.167104 263.197C0.0556851 262.764 -1.80434e-07 262.217 -1.80434e-07 261.558ZM0.933814 259.462V261.578C0.933814 261.98 1.05506 262.263 1.29751 262.429C1.53996 262.595 1.92661 262.678 2.4574 262.678H3.70577C4.23001 262.678 4.61337 262.595 4.85583 262.429C5.09829 262.263 5.21953 261.98 5.21953 261.578V259.462C5.21953 259.061 5.09829 258.777 4.85583 258.611C4.61337 258.445 4.23001 258.362 3.70577 258.362H2.4574C1.92661 258.362 1.53996 258.445 1.29751 258.611C1.05506 258.777 0.933814 259.061 0.933814 259.462ZM4.12844 265.928C4.41678 265.928 4.67562 265.962 4.90498 266.031C5.14089 266.105 5.34076 266.237 5.50459 266.426C5.66841 266.619 5.7962 266.882 5.88794 267.214C5.97969 267.551 6.02556 267.977 6.02556 268.494V271.088H5.09174V269.282C5.09174 268.821 5.01638 268.499 4.86566 268.314C4.71494 268.13 4.45282 268.037 4.07929 268.037H0.127785V265.928H4.12844ZM0.127785 279.294L0.127785 272.571C0.127785 272.197 0.209715 271.928 0.373526 271.762C0.543922 271.6 0.766711 271.52 1.04194 271.52C1.29751 271.52 1.52359 271.589 1.72018 271.727C1.91678 271.865 2.12649 272.128 2.34928 272.516L4.65924 276.479C4.68545 276.53 4.71494 276.569 4.74771 276.596C4.78047 276.624 4.82962 276.638 4.89515 276.638C4.96724 276.638 5.01638 276.617 5.04259 276.576C5.07536 276.539 5.09174 276.488 5.09174 276.424V271.589H6.02556L6.02556 278.146C6.02556 278.529 5.96003 278.821 5.82896 279.024C5.6979 279.232 5.46527 279.336 5.13106 279.336C4.86238 279.336 4.62975 279.252 4.43316 279.086C4.23657 278.925 4.02359 278.653 3.79423 278.27L1.44495 274.328C1.41217 274.272 1.37944 274.228 1.34666 274.196C1.31388 274.164 1.27456 274.148 1.2287 274.148C1.16319 274.148 1.11728 274.166 1.09109 274.203C1.07143 274.245 1.0616 274.296 1.0616 274.355L1.0616 279.294H0.127785ZM6.02556 284.764C6.02556 285.382 5.98624 285.887 5.9076 286.279C5.82896 286.671 5.70773 286.978 5.54391 287.199C5.38663 287.42 5.18676 287.572 4.9443 287.655C4.70184 287.738 4.41678 287.78 4.08912 287.78H0.127785V281.942C0.127785 281.569 0.153981 281.255 0.206422 281.001C0.2654 280.752 0.34733 280.554 0.452163 280.407C0.556996 280.259 0.688074 280.155 0.845348 280.095C1.00916 280.035 1.19268 280.005 1.39581 280.005C1.71689 280.005 2.01178 280.123 2.28047 280.358C2.54916 280.593 2.81127 280.955 3.06684 281.444L5.05242 285.241C5.06553 285.145 5.07536 285.027 5.08191 284.889C5.08846 284.75 5.09174 284.584 5.09174 284.391V280.137H6.02556V284.764ZM1.0616 283.201V285.705H4.18742C4.21363 285.705 4.23657 285.705 4.25623 285.705C4.28244 285.705 4.30537 285.705 4.32503 285.705L2.87025 283.09C2.73263 282.846 2.5819 282.673 2.41809 282.572C2.26081 282.475 2.07076 282.426 1.84797 282.426C1.60552 282.426 1.41217 282.486 1.26802 282.606C1.13041 282.731 1.0616 282.929 1.0616 283.201ZM0.127785 289.71H5.09174V288.368H6.02556L6.02556 289.71C6.28113 289.714 6.50066 289.756 6.68414 289.834C6.87418 289.918 7.02818 290.053 7.14613 290.243C7.26409 290.432 7.35256 290.688 7.41153 291.01C7.47051 291.333 7.5 291.734 7.5 292.214V294.593H6.64482V292.318C6.64482 292.133 6.59567 292.004 6.49738 291.93C6.40563 291.857 6.25819 291.82 6.05505 291.82H6.02556V294.593H5.09174V291.82H0.127785L0.127785 289.71ZM-1.80434e-07 300.242V298.167C-1.80434e-07 297.507 0.0556851 296.959 0.167104 296.521C0.285059 296.087 0.455455 295.741 0.678244 295.483C0.907618 295.23 1.18938 295.052 1.52359 294.951C1.86433 294.849 2.25428 294.798 2.69332 294.798H3.46003C3.89908 294.798 4.28571 294.849 4.61992 294.951C4.96068 295.052 5.24247 295.23 5.46527 295.483C5.69463 295.741 5.865 296.087 5.97641 296.521C6.09436 296.959 6.15334 297.507 6.15334 298.167V300.242C6.15334 300.901 6.09436 301.448 5.97641 301.881C5.865 302.319 5.69463 302.665 5.46527 302.919C5.24247 303.177 4.96068 303.357 4.61992 303.458C4.28571 303.559 3.89908 303.61 3.46003 303.61H2.69332C2.25428 303.61 1.86433 303.559 1.52359 303.458C1.18938 303.357 0.907618 303.177 0.678244 302.919C0.455455 302.665 0.285059 302.319 0.167104 301.881C0.0556851 301.448 -1.80434e-07 300.901 -1.80434e-07 300.242ZM0.933814 298.146V300.263C0.933814 300.664 1.05506 300.947 1.29751 301.113C1.53996 301.279 1.92661 301.362 2.4574 301.362H3.70577C4.23001 301.362 4.61337 301.279 4.85583 301.113C5.09829 300.947 5.21953 300.664 5.21953 300.263V298.146C5.21953 297.745 5.09829 297.461 4.85583 297.295C4.61337 297.129 4.23001 297.046 3.70577 297.046H2.4574C1.92661 297.046 1.53996 297.129 1.29751 297.295C1.05506 297.461 0.933814 297.745 0.933814 298.146ZM4.12844 304.612C4.41678 304.612 4.67562 304.646 4.90498 304.716C5.14089 304.789 5.34076 304.921 5.50459 305.11C5.66841 305.304 5.7962 305.566 5.88794 305.898C5.97969 306.235 6.02556 306.661 6.02556 307.178V309.772H5.09174L5.09174 307.967C5.09174 307.505 5.01638 307.183 4.86566 306.998C4.71494 306.813 4.45282 306.722 4.07929 306.722H0.127785L0.127785 304.612H4.12844ZM0.127785 317.978V311.255C0.127785 310.882 0.209715 310.612 0.373526 310.446C0.543922 310.284 0.766711 310.204 1.04194 310.204C1.29751 310.204 1.52359 310.273 1.72018 310.411C1.91678 310.55 2.12649 310.812 2.34928 311.2L4.65924 315.163C4.68545 315.214 4.71494 315.253 4.74771 315.281C4.78047 315.308 4.82962 315.322 4.89515 315.322C4.96724 315.322 5.01638 315.301 5.04259 315.26C5.07536 315.223 5.09174 315.172 5.09174 315.108V310.273H6.02556V316.83C6.02556 317.213 5.96003 317.505 5.82896 317.708C5.6979 317.916 5.46527 318.02 5.13106 318.02C4.86238 318.02 4.62975 317.937 4.43316 317.771C4.23657 317.609 4.02359 317.337 3.79423 316.955L1.44495 313.012C1.41217 312.957 1.37944 312.913 1.34666 312.881C1.31388 312.848 1.27456 312.832 1.2287 312.832C1.16319 312.832 1.11728 312.85 1.09109 312.887C1.07143 312.929 1.0616 312.979 1.0616 313.04V317.978H0.127785ZM6.02556 323.448C6.02556 324.066 5.98624 324.571 5.9076 324.963C5.82896 325.355 5.70773 325.662 5.54391 325.883C5.38663 326.104 5.18676 326.257 4.9443 326.34C4.70184 326.423 4.41678 326.464 4.08912 326.464H0.127785V320.626C0.127785 320.253 0.153981 319.939 0.206422 319.686C0.2654 319.437 0.34733 319.238 0.452163 319.091C0.556996 318.943 0.688074 318.839 0.845348 318.78C1.00916 318.72 1.19268 318.69 1.39581 318.69C1.71689 318.69 2.01178 318.807 2.28047 319.042C2.54916 319.278 2.81127 319.64 3.06684 320.128L5.05242 323.926C5.06553 323.829 5.07536 323.711 5.08191 323.573C5.08846 323.435 5.09174 323.269 5.09174 323.075V318.821H6.02556V323.448ZM1.0616 321.885V324.389H4.18742C4.21363 324.389 4.23657 324.389 4.25623 324.389C4.28244 324.389 4.30537 324.389 4.32503 324.389L2.87025 321.775C2.73263 321.53 2.5819 321.357 2.41809 321.256C2.26081 321.159 2.07076 321.111 1.84797 321.111C1.60552 321.111 1.41217 321.17 1.26802 321.29C1.13041 321.415 1.0616 321.613 1.0616 321.885ZM0.127785 327.429H2.14286V329.331H0.127785V327.429ZM5.09174 333.281C5.09174 332.931 4.99017 332.679 4.78702 332.527C4.59043 332.379 4.23001 332.306 3.70577 332.306H2.4574C1.92661 332.306 1.55962 332.379 1.35649 332.527C1.1599 332.679 1.0616 332.931 1.0616 333.281L1.0616 337.556H0.127785L0.127785 333.419C0.127785 332.806 0.17364 332.285 0.2654 331.856C0.363696 331.427 0.51114 331.079 0.707733 330.812C0.904325 330.549 1.1599 330.358 1.47444 330.238C1.78899 330.118 2.16252 330.058 2.59502 330.058H3.55832C3.99083 330.058 4.36435 330.118 4.6789 330.238C4.99345 330.358 5.24902 330.549 5.44561 330.812C5.6422 331.079 5.78637 331.427 5.87811 331.856C5.97641 332.285 6.02556 332.806 6.02556 333.419L6.02556 337.556H5.09174V333.281ZM-1.80434e-07 343.661V341.586C-1.80434e-07 340.926 0.0556851 340.378 0.167104 339.94C0.285059 339.506 0.455455 339.16 0.678244 338.902C0.907618 338.648 1.18938 338.471 1.52359 338.37C1.86433 338.268 2.25428 338.217 2.69332 338.217H3.46003C3.89908 338.217 4.28571 338.268 4.61992 338.37C4.96068 338.471 5.24247 338.648 5.46527 338.902C5.69463 339.16 5.865 339.506 5.97641 339.94C6.09436 340.378 6.15334 340.926 6.15334 341.586V343.661C6.15334 344.32 6.09436 344.867 5.97641 345.3C5.865 345.738 5.69463 346.084 5.46527 346.338C5.24247 346.596 4.96068 346.776 4.61992 346.877C4.28571 346.979 3.89908 347.029 3.46003 347.029H2.69332C2.25428 347.029 1.86433 346.979 1.52359 346.877C1.18938 346.776 0.907618 346.596 0.678244 346.338C0.455455 346.084 0.285059 345.738 0.167104 345.3C0.0556851 344.867 -1.80434e-07 344.32 -1.80434e-07 343.661ZM0.933814 341.565V343.682C0.933814 344.083 1.05506 344.367 1.29751 344.533C1.53996 344.699 1.92661 344.782 2.4574 344.782H3.70577C4.23001 344.782 4.61337 344.699 4.85583 344.533C5.09829 344.367 5.21953 344.083 5.21953 343.682V341.565C5.21953 341.164 5.09829 340.88 4.85583 340.714C4.61337 340.548 4.23001 340.465 3.70577 340.465H2.4574C1.92661 340.465 1.53996 340.548 1.29751 340.714C1.05506 340.88 0.933814 341.164 0.933814 341.565ZM0.127785 348.031H6.02556V358.69C6.02556 359.119 5.98296 359.48 5.89777 359.776C5.81913 360.075 5.69463 360.315 5.52425 360.495C5.35386 360.675 5.13434 360.804 4.86566 360.882C4.59698 360.961 4.27916 361 3.91219 361H0.127785V358.89H4.03014C4.41678 358.89 4.68218 358.816 4.82634 358.669C4.97051 358.521 5.04259 358.254 5.04259 357.867V355.57H0.127785V353.461H5.04259V350.141H0.127785L0.127785 348.031Z" fill="black"/>
</svg>
