<svg width="416" height="155" viewBox="0 0 416 155" fill="none" xmlns="http://www.w3.org/2000/svg">
<path d="M36.0902 8.50046C27.2537 8.50046 20.0902 15.6639 20.0902 24.5005C20.0902 27.9591 21.1876 31.1614 23.0532 33.7782H111.457C126.264 33.7782 138.267 43.0941 138.267 54.5861V104.24C138.267 113.817 128.264 121.58 115.925 121.58H87.4126C75.0735 121.58 65.0707 113.817 65.0707 104.24V53.4023C65.0707 47.0578 58.4438 41.9145 50.2692 41.9145H29.2284L41.891 54.5771V102.275C41.891 107.844 46.519 112.459 53.3412 113.291V121.58H0V113.175C6.54642 112.093 11.4528 107.623 11.4528 102.275L11.4502 41.9145H0.0901794V33.7963H11.4502V25.0005C11.4502 11.1933 22.7831 0 36.5902 0H95.6467V22.3085H51.9413C50.8728 14.509 44.1832 8.50046 36.0902 8.50046Z" fill="#C5E211"/>
<path d="M325.633 41.9144C318.655 42.8407 313.345 47.5576 313.345 53.2372L313.341 73.3433L266.427 88.2991V99.8067C266.427 107.468 270.178 113.679 274.805 113.679C279.432 113.679 283.183 107.468 283.183 99.8067V93.4026H313.341V101.841C313.341 107.521 318.655 112.403 325.633 113.329V121.58H222.022V113.329C229 112.407 234.59 107.495 234.59 101.841V85.2844L283.183 70.1118V55.7866C283.183 48.1252 279.432 41.9145 274.805 41.9145C270.178 41.9145 266.427 48.1252 266.427 55.7866V63.0576H235.986V53.8358C235.986 47.2466 230.773 43.1428 228.166 41.9145V61.5756L197 61.5378C197 50.7683 188.27 42 177.5 42C166.73 42 158 50.7304 158 61.5C158 66.8768 160.176 71.7453 163.696 75.2728L179.852 87.8121V102.074C179.852 107.524 184.742 112.088 191.302 113.266V121.596H137.961V113.397C144.939 112.471 150.249 107.754 150.249 102.074V53.2372C150.249 47.5576 144.939 42.8407 137.961 41.9144V33.7782H325.633V41.9144Z" fill="#C5E211"/>
<path d="M376.394 113.204C386.335 113.204 394.394 105.593 394.394 96.2037C394.394 92.5715 394.394 89.7037 391.133 86.4429L372.894 68.2037V54.7037C372.894 47.8002 367.298 42.2037 360.394 42.2037H347.894C340.991 42.2037 335.394 47.8002 335.394 54.7037V60.3253H325V53.7037C325 42.658 333.849 34 344.894 34H380.855C393.194 34 403.196 41.7634 403.196 51.34V102.045C403.196 107.724 408.507 112.441 415.484 113.368V121.784H347.9C335.561 121.784 325.559 114.021 325.559 104.444V79.3008L354.394 57.7653V93.2037C354.394 104.249 363.349 113.204 374.394 113.204H376.394Z" fill="#C5E211"/>
<path d="M71.1819 70.6451L115.071 11.404C115.733 10.5105 117.14 11.2027 116.836 12.2725L104.25 56.5922C104.069 57.2307 104.549 57.8654 105.212 57.8654H127.98C128.808 57.8654 129.277 58.8134 128.776 59.4716L84.3614 117.736C83.6899 118.617 82.297 117.915 82.6057 116.851L95.1843 73.5192C95.3701 72.8794 94.8901 72.2404 94.224 72.2404H71.9854C71.164 72.2404 70.6929 71.3051 71.1819 70.6451Z" fill="#9100EA"/>
<path fill-rule="evenodd" clip-rule="evenodd" d="M18.079 126.138C15.856 126.138 14.0539 127.94 14.0539 130.163C14.0539 131.033 14.33 131.839 14.7993 132.497H37.0384C40.7633 132.497 43.7829 134.841 43.7829 137.732V150.223C43.7829 152.632 41.2666 154.585 38.1625 154.585H30.9897C27.8857 154.585 25.3694 152.632 25.3694 150.223V137.434C25.3694 135.838 23.7023 134.544 21.6459 134.544H16.3528L19.5382 137.73V149.728C19.5382 151.129 20.7025 152.291 22.4187 152.5V154.585H9V152.471C10.6468 152.198 11.8811 151.074 11.8811 149.728L11.8804 134.544H9.02269V132.502H11.8804V130.289C11.8804 126.816 14.7314 124 18.2047 124H33.0612V129.612H22.0665C21.7977 127.65 20.1148 126.138 18.079 126.138ZM90.917 134.544C89.1618 134.777 87.8258 135.964 87.8258 137.392L87.825 142.45L76.023 146.213V149.108C76.023 151.035 76.9667 152.597 78.1307 152.597C79.2947 152.597 80.2383 151.035 80.2383 149.108V147.497H87.825V149.619C87.825 151.048 89.1618 152.276 90.917 152.509V154.585H64.8525V152.509C66.6078 152.277 68.014 151.042 68.014 149.619V145.454L80.2383 141.638V138.034C80.2383 136.107 79.2947 134.544 78.1307 134.544C76.9667 134.544 76.023 136.107 76.023 138.034V139.863H68.3653V137.543C68.3653 135.885 67.0538 134.853 66.3981 134.544V139.49L58.5579 139.481C58.5579 136.771 56.3616 134.566 53.6524 134.566C50.9432 134.566 48.7469 136.762 48.7469 139.471C48.7469 140.824 49.2943 142.048 50.1797 142.936L54.2441 146.09V149.678C54.2441 151.049 55.4742 152.197 57.1245 152.494V154.589H43.7059V152.526C45.4611 152.293 46.7971 151.107 46.7971 149.678V137.392C46.7971 135.964 45.4611 134.777 43.7059 134.544V132.497H90.917V134.544ZM108.215 148.201C108.215 150.563 106.188 152.478 103.687 152.478H103.184C100.405 152.478 98.1524 150.225 98.1524 147.447V138.532L90.8984 143.949V150.274C90.8984 152.683 93.4147 154.636 96.5188 154.636H113.52V152.519C111.765 152.286 110.429 151.099 110.429 149.671V136.915C110.429 134.506 107.913 132.553 104.809 132.553H95.7626C92.9839 132.553 90.7579 134.731 90.7579 137.51V139.176H93.3727V137.761C93.3727 136.025 94.7806 134.617 96.5172 134.617H99.6618C101.398 134.617 102.806 136.025 102.806 137.761V141.158L107.395 145.746C108.215 146.566 108.215 147.288 108.215 148.201ZM27.6156 138.328C27.6156 136.25 29.5303 134.566 31.8922 134.566C34.2541 134.566 36.1688 136.25 36.1688 138.328V147.735C36.1688 150.125 35.3792 152.175 34.3754 152.175C33.3716 152.175 32.5337 149.937 32.5337 147.547V143.97L28.0995 140.069C27.7904 139.548 27.6156 138.956 27.6156 138.328Z" fill="black"/>
<path fill-rule="evenodd" clip-rule="evenodd" d="M226.876 126.138C224.653 126.138 222.851 127.94 222.851 130.163C222.851 131.033 223.127 131.839 223.596 132.497H245.835C249.56 132.497 252.58 134.841 252.58 137.732V150.223C252.58 152.632 250.063 154.585 246.959 154.585H239.787C236.683 154.585 234.166 152.632 234.166 150.223V137.434C234.166 135.838 232.499 134.544 230.443 134.544H225.15L228.335 137.73V149.728C228.335 151.129 229.499 152.291 231.216 152.5V154.585H217.797V152.471C219.444 152.198 220.678 151.074 220.678 149.728L220.677 134.544H217.82V132.502H220.677V130.289C220.677 126.816 223.528 124 227.002 124H241.858V129.612H230.863C230.595 127.65 228.912 126.138 226.876 126.138ZM299.714 134.544C297.959 134.777 296.623 135.964 296.623 137.392L296.622 142.45L284.82 146.213V149.108C284.82 151.035 285.764 152.597 286.928 152.597C288.092 152.597 289.035 151.035 289.035 149.108V147.497H296.622V149.619C296.622 151.048 297.959 152.276 299.714 152.509V154.585H273.649V152.509C275.405 152.277 276.811 151.042 276.811 149.619V145.454L289.035 141.638V138.034C289.035 136.107 288.092 134.544 286.928 134.544C285.764 134.544 284.82 136.107 284.82 138.034V139.863H277.162V137.543C277.162 135.885 275.851 134.853 275.195 134.544V139.49L267.355 139.481C267.355 136.771 265.158 134.566 262.449 134.566C259.74 134.566 257.544 136.762 257.544 139.471C257.544 140.824 258.091 142.048 258.977 142.936L263.041 146.09V149.678C263.041 151.049 264.271 152.197 265.921 152.494V154.589H252.503V152.526C254.258 152.293 255.594 151.107 255.594 149.678V137.392C255.594 135.964 254.258 134.777 252.503 134.544V132.497H299.714V134.544ZM317.012 148.201C317.012 150.563 314.984 152.478 312.484 152.478H311.981C309.202 152.478 306.949 150.225 306.949 147.447V138.532L299.695 143.949V150.274C299.695 152.683 302.212 154.636 305.316 154.636H322.317V152.519C320.562 152.286 319.226 151.099 319.226 149.671V136.915C319.226 134.506 316.71 132.553 313.606 132.553H304.559C301.781 132.553 299.555 134.731 299.555 137.51V139.176H302.17V137.761C302.17 136.025 303.577 134.617 305.314 134.617H308.459C310.195 134.617 311.603 136.025 311.603 137.761V141.158L316.191 145.746C317.012 146.566 317.012 147.288 317.012 148.201ZM236.413 138.328C236.413 136.25 238.327 134.566 240.689 134.566C243.051 134.566 244.966 136.25 244.966 138.328V147.735C244.966 150.125 244.176 152.175 243.172 152.175C242.169 152.175 241.331 149.937 241.331 147.547V143.97L236.897 140.069C236.587 139.548 236.413 138.956 236.413 138.328Z" fill="black"/>
<path fill-rule="evenodd" clip-rule="evenodd" d="M122.477 126.138C120.254 126.138 118.452 127.94 118.452 130.163C118.452 131.033 118.728 131.839 119.198 132.497H141.437C145.162 132.497 148.181 134.841 148.181 137.732V150.223C148.181 152.632 145.665 154.585 142.561 154.585H135.388C132.284 154.585 129.768 152.632 129.768 150.223V137.434C129.768 135.838 128.101 134.544 126.044 134.544H120.751L123.937 137.73V149.728C123.937 151.129 125.101 152.291 126.817 152.5V154.585H113.398V152.471C115.045 152.198 116.28 151.074 116.28 149.728L116.279 134.544H113.421V132.502H116.279V130.289C116.279 126.816 119.13 124 122.603 124H137.46V129.612H126.465C126.196 127.65 124.513 126.138 122.477 126.138ZM195.315 134.544C193.56 134.777 192.224 135.964 192.224 137.392L192.223 142.45L180.421 146.213V149.108C180.421 151.035 181.365 152.597 182.529 152.597C183.693 152.597 184.637 151.035 184.637 149.108V147.497H192.223V149.619C192.223 151.048 193.56 152.276 195.315 152.509V154.585H169.251V152.509C171.006 152.277 172.412 151.042 172.412 149.619V145.454L184.637 141.638V138.034C184.637 136.107 183.693 134.544 182.529 134.544C181.365 134.544 180.421 136.107 180.421 138.034V139.863H172.764V137.543C172.764 135.885 171.452 134.853 170.797 134.544V139.49L162.956 139.481C162.956 136.771 160.76 134.566 158.051 134.566C155.342 134.566 153.145 136.762 153.145 139.471C153.145 140.824 153.693 142.048 154.578 142.936L158.643 146.09V149.678C158.643 151.049 159.873 152.197 161.523 152.494V154.589H148.104V152.526C149.86 152.293 151.196 151.107 151.196 149.678V137.392C151.196 135.964 149.86 134.777 148.104 134.544V132.497H195.315V134.544ZM212.613 148.201C212.613 150.563 210.586 152.478 208.085 152.478H207.582C204.803 152.478 202.551 150.225 202.551 147.447V138.532L195.297 143.949V150.274C195.297 152.683 197.813 154.636 200.917 154.636H217.919V152.519C216.164 152.286 214.828 151.099 214.828 149.671V136.915C214.828 134.506 212.311 132.553 209.207 132.553H200.161C197.382 132.553 195.156 134.731 195.156 137.51V139.176H197.771V137.761C197.771 136.025 199.179 134.617 200.916 134.617H204.06C205.797 134.617 207.205 136.025 207.205 137.761V141.158L211.793 145.746C212.613 146.566 212.613 147.288 212.613 148.201ZM132.014 138.328C132.014 136.25 133.929 134.566 136.291 134.566C138.653 134.566 140.567 136.25 140.567 138.328V147.735C140.567 150.125 139.778 152.175 138.774 152.175C137.77 152.175 136.932 149.937 136.932 147.547V143.97L132.498 140.069C132.189 139.548 132.014 138.956 132.014 138.328Z" fill="black"/>
<path d="M340.058 148.905C340.058 150.832 341.001 152.395 342.165 152.395C343.329 152.395 344.273 150.832 344.273 148.905V145.319L349.869 139.723V150.163C349.869 152.572 347.312 154.625 344.208 154.625H331.253V152.549C333.008 152.318 334.414 151.082 334.414 149.66V137.585C334.414 134.697 337.285 132.307 341.005 132.302H343.58C348.485 132.302 349.869 134.819 349.869 137.71V138.088H347.101C347.101 136.143 345.525 134.566 343.58 134.566C341.634 134.566 340.058 136.143 340.058 138.088V148.905Z" fill="black"/>
<path fill-rule="evenodd" clip-rule="evenodd" d="M352.887 150.279L352.887 137.197C352.887 135.768 351.551 134.582 349.796 134.349V132.302L364.556 132.302C368.281 132.302 371.301 134.645 371.301 137.536V150.279C371.301 152.688 368.784 154.641 365.68 154.641H358.508C355.403 154.641 352.887 152.688 352.887 150.279ZM355.151 138.382C355.151 136.274 357.066 134.566 359.428 134.566C361.79 134.566 363.704 136.274 363.704 138.382V147.923C363.704 150.347 362.915 152.427 361.911 152.427C360.907 152.427 360.069 150.156 360.069 147.732V144.104L355.635 140.147C355.326 139.619 355.151 139.019 355.151 138.382Z" fill="black"/>
<path fill-rule="evenodd" clip-rule="evenodd" d="M403.908 137.547V149.6C403.908 151.029 405.245 152.257 407 152.49V154.565H371.628V152.49C373.383 152.258 374.789 151.022 374.789 149.6V137.208C374.789 135.779 373.436 134.592 371.681 134.359V132.312L397.259 132.313C400.984 132.313 403.908 134.656 403.908 137.547ZM381.062 134.566C378.7 134.566 376.785 136.275 376.785 138.383C376.785 139.02 376.96 139.62 377.269 140.148L381.703 144.105V147.733C381.703 150.157 382.541 152.427 383.545 152.427C384.548 152.427 385.338 150.348 385.338 147.924V138.383C385.338 136.275 383.423 134.566 381.062 134.566ZM389.112 138.383C389.112 136.275 391.026 134.566 393.388 134.566C395.75 134.566 397.665 136.275 397.665 138.383V147.924C397.665 150.348 396.875 152.427 395.871 152.427C394.867 152.427 394.03 150.157 394.03 147.733V144.105L389.595 140.148C389.286 139.62 389.112 139.02 389.112 138.383Z" fill="black"/>
<circle cx="326.724" cy="143.371" r="4.52813" fill="black"/>
</svg>
