<svg width="1240" height="384" viewBox="0 0 1240 384" fill="none" xmlns="http://www.w3.org/2000/svg">
<path d="M156.159 49.7367V107.574C156.159 113.253 150.848 117.97 143.871 118.896V122.096H197.212V118.766C190.652 117.587 185.762 113.024 185.762 107.574V81.3117L165.096 65.2722C162.63 62.5081 161.186 59.1536 161.186 55.5374C161.186 46.0804 171.063 38.4141 183.248 38.4141C195.433 38.4141 205.311 46.0804 205.311 55.5374H234.076V38.4141C236.683 39.6423 241.896 43.7461 241.896 50.3353V63.5571H272.336V52.2861C272.336 44.6248 276.088 38.4141 280.715 38.4141C285.342 38.4141 289.093 44.6248 289.093 52.2861V74.6114L240.499 89.7839V107.341C240.499 112.994 234.91 117.906 227.932 118.828V122.08H331.542V118.828C324.565 117.902 319.251 113.02 319.251 107.341V93.9022H289.093V104.306C289.093 111.968 285.342 118.178 280.715 118.178C276.088 118.178 272.336 111.968 272.336 104.306V84.7987L319.251 69.8429L319.254 49.7367C319.254 44.0572 324.565 39.3403 331.542 38.4139V34.2777H143.871V38.4139C150.848 39.3403 156.159 44.0572 156.159 49.7367ZM156.159 49.7367V49.6851M327.074 104.74V79.5966L356.677 57.4881V102.355C356.677 111.812 365.996 118.593 378.181 118.593C390.366 118.593 400.244 110.926 400.244 101.469C400.244 97.8531 398.847 93.6854 394.658 90.6509L374.55 75.0449V52.7196C374.55 44.7189 366.048 38.4141 355.56 38.4141H351.65C341.162 38.4141 332.659 44.7189 332.659 52.7196V56.6211H326.515V51.4191C326.515 41.8425 336.518 34.2958 348.857 34.2958H382.37C394.709 34.2958 404.712 42.0592 404.712 51.6358V107.341C404.712 113.02 410.023 117.737 417 118.664V122.08H349.416C337.077 122.08 327.074 114.316 327.074 104.74ZM327.074 104.74V105.173M70.9805 49.9018C70.9805 43.5573 64.3536 38.4141 56.179 38.4141H32.1615L47.8008 50.5521V107.774C47.8008 113.343 52.4288 117.959 59.251 118.79V122.08H5.90982V118.674C12.4562 117.592 17.3626 113.123 17.3626 107.774L17.36 38.4141H2V34.2958H17.36V22.808C17.36 11.3161 29.3634 2 44.1703 2H95.5565V22.808H66.5121C66.5121 13.2314 56.5093 5.46801 44.1703 5.46801C31.8312 5.46801 21.8284 13.2314 21.8284 22.808C21.8284 27.2057 23.9377 31.221 27.4139 34.2777H122.367C137.174 34.2777 149.177 43.5937 149.177 55.0856V104.74C149.177 114.316 139.174 122.08 126.835 122.08H93.3223C80.9833 122.08 70.9805 114.316 70.9805 104.74V49.9018ZM99.7456 37.9806C87.4066 37.9806 77.4038 45.744 77.4038 55.3206C77.4038 58.2141 78.3169 60.942 79.9317 63.3404L103.097 81.3194V97.8037C103.097 108.817 107.348 117.745 112.592 117.745C117.836 117.745 122.087 109.684 122.087 98.6707V55.3206C122.087 45.744 112.085 37.9806 99.7456 37.9806Z" stroke="black" stroke-width="3"/>
<path d="M567.159 49.7367V107.574C567.159 113.253 561.848 117.97 554.871 118.896V122.096H608.212V118.766C601.652 117.587 596.762 113.024 596.762 107.574V81.3117L576.096 65.2722C573.63 62.5081 572.186 59.1536 572.186 55.5374C572.186 46.0804 582.063 38.4141 594.248 38.4141C606.433 38.4141 616.311 46.0804 616.311 55.5374H645.076V38.4141C647.683 39.6423 652.896 43.7461 652.896 50.3353V63.5571H683.336V52.2861C683.336 44.6248 687.088 38.4141 691.715 38.4141C696.342 38.4141 700.093 44.6248 700.093 52.2861V74.6114L651.499 89.7839V107.341C651.499 112.994 645.91 117.906 638.932 118.828V122.08H742.542V118.828C735.565 117.902 730.251 113.02 730.251 107.341V93.9022H700.093V104.306C700.093 111.968 696.342 118.178 691.715 118.178C687.088 118.178 683.336 111.968 683.336 104.306V84.7987L730.251 69.8429L730.254 49.7367C730.254 44.0572 735.565 39.3403 742.542 38.4139V34.2777H554.871V38.4139C561.848 39.3403 567.159 44.0572 567.159 49.7367ZM567.159 49.7367V49.6851M738.074 104.74V79.5966L767.677 57.4881V102.355C767.677 111.812 776.996 118.593 789.181 118.593C801.366 118.593 811.244 110.926 811.244 101.469C811.244 97.8531 809.847 93.6854 805.658 90.6509L785.55 75.0449V52.7196C785.55 44.7189 777.048 38.4141 766.56 38.4141H762.65C752.162 38.4141 743.659 44.7189 743.659 52.7196V56.6211H737.515V51.4191C737.515 41.8425 747.518 34.2958 759.857 34.2958H793.37C805.709 34.2958 815.712 42.0592 815.712 51.6358V107.341C815.712 113.02 821.023 117.737 828 118.664V122.08H760.416C748.077 122.08 738.074 114.316 738.074 104.74ZM738.074 104.74V105.173M481.98 49.9018C481.98 43.5573 475.354 38.4141 467.179 38.4141H443.162L458.801 50.5521V107.774C458.801 113.343 463.429 117.959 470.251 118.79V122.08H416.91V118.674C423.456 117.592 428.363 113.123 428.363 107.774L428.36 38.4141H413V34.2958H428.36V22.808C428.36 11.3161 440.363 2 455.17 2H506.557V22.808H477.512C477.512 13.2314 467.509 5.46801 455.17 5.46801C442.831 5.46801 432.828 13.2314 432.828 22.808C432.828 27.2057 434.938 31.221 438.414 34.2777H533.367C548.174 34.2777 560.177 43.5937 560.177 55.0856V104.74C560.177 114.316 550.174 122.08 537.835 122.08H504.322C491.983 122.08 481.98 114.316 481.98 104.74V49.9018ZM510.746 37.9806C498.407 37.9806 488.404 45.744 488.404 55.3206C488.404 58.2141 489.317 60.942 490.932 63.3404L514.097 81.3194V97.8037C514.097 108.817 518.348 117.745 523.592 117.745C528.836 117.745 533.087 109.684 533.087 98.6707V55.3206C533.087 45.744 523.085 37.9806 510.746 37.9806Z" stroke="black" stroke-width="3"/>
<path d="M977.159 49.7367V107.574C977.159 113.253 971.848 117.97 964.871 118.896V122.096H1018.21V118.766C1011.65 117.587 1006.76 113.024 1006.76 107.574V81.3117L986.096 65.2722C983.63 62.5081 982.186 59.1536 982.186 55.5374C982.186 46.0804 992.063 38.4141 1004.25 38.4141C1016.43 38.4141 1026.31 46.0804 1026.31 55.5374H1055.08V38.4141C1057.68 39.6423 1062.9 43.7461 1062.9 50.3353V63.5571H1093.34V52.2861C1093.34 44.6248 1097.09 38.4141 1101.71 38.4141C1106.34 38.4141 1110.09 44.6248 1110.09 52.2861V74.6114L1061.5 89.7839V107.341C1061.5 112.994 1055.91 117.906 1048.93 118.828V122.08H1152.54V118.828C1145.56 117.902 1140.25 113.02 1140.25 107.341V93.9022H1110.09V104.306C1110.09 111.968 1106.34 118.178 1101.71 118.178C1097.09 118.178 1093.34 111.968 1093.34 104.306V84.7987L1140.25 69.8429L1140.25 49.7367C1140.25 44.0572 1145.56 39.3403 1152.54 38.4139V34.2777H964.871V38.4139C971.848 39.3403 977.159 44.0572 977.159 49.7367ZM977.159 49.7367V49.6851M1148.07 104.74V79.5966L1177.68 57.4881V102.355C1177.68 111.812 1187 118.593 1199.18 118.593C1211.37 118.593 1221.24 110.926 1221.24 101.469C1221.24 97.8531 1219.85 93.6854 1215.66 90.6509L1195.55 75.0449V52.7196C1195.55 44.7189 1187.05 38.4141 1176.56 38.4141H1172.65C1162.16 38.4141 1153.66 44.7189 1153.66 52.7196V56.6211H1147.52V51.4191C1147.52 41.8425 1157.52 34.2958 1169.86 34.2958H1203.37C1215.71 34.2958 1225.71 42.0592 1225.71 51.6358V107.341C1225.71 113.02 1231.02 117.737 1238 118.664V122.08H1170.42C1158.08 122.08 1148.07 114.316 1148.07 104.74ZM1148.07 104.74V105.173M891.98 49.9018C891.98 43.5573 885.354 38.4141 877.179 38.4141H853.162L868.801 50.5521V107.774C868.801 113.343 873.429 117.959 880.251 118.79V122.08H826.91V118.674C833.456 117.592 838.363 113.123 838.363 107.774L838.36 38.4141H823V34.2958H838.36V22.808C838.36 11.3161 850.363 2 865.17 2H916.557V22.808H887.512C887.512 13.2314 877.509 5.46801 865.17 5.46801C852.831 5.46801 842.828 13.2314 842.828 22.808C842.828 27.2057 844.938 31.221 848.414 34.2777H943.367C958.174 34.2777 970.177 43.5937 970.177 55.0856V104.74C970.177 114.316 960.174 122.08 947.835 122.08H914.322C901.983 122.08 891.98 114.316 891.98 104.74V49.9018ZM920.746 37.9806C908.407 37.9806 898.404 45.744 898.404 55.3206C898.404 58.2141 899.317 60.942 900.932 63.3404L924.097 81.3194V97.8037C924.097 108.817 928.348 117.745 933.592 117.745C938.836 117.745 943.087 109.684 943.087 98.6707V55.3206C943.087 45.744 933.085 37.9806 920.746 37.9806Z" stroke="black" stroke-width="3"/>
<path d="M156.159 179.737V237.574C156.159 243.253 150.848 247.97 143.871 248.896V252.096H197.212V248.766C190.652 247.587 185.762 243.024 185.762 237.574V211.312L165.096 195.272C162.63 192.508 161.186 189.154 161.186 185.537C161.186 176.08 171.063 168.414 183.248 168.414C195.433 168.414 205.311 176.08 205.311 185.537H234.076V168.414C236.683 169.642 241.896 173.746 241.896 180.335V193.557H272.336V182.286C272.336 174.625 276.088 168.414 280.715 168.414C285.342 168.414 289.093 174.625 289.093 182.286V204.611L240.499 219.784V237.341C240.499 242.994 234.91 247.906 227.932 248.828V252.08H331.542V248.828C324.565 247.902 319.251 243.02 319.251 237.341V223.902H289.093V234.306C289.093 241.968 285.342 248.178 280.715 248.178C276.088 248.178 272.336 241.968 272.336 234.306V214.799L319.251 199.843L319.254 179.737C319.254 174.057 324.565 169.34 331.542 168.414V164.278H143.871V168.414C150.848 169.34 156.159 174.057 156.159 179.737ZM156.159 179.737V179.685M327.074 234.74V209.597L356.677 187.488V232.355C356.677 241.812 365.996 248.593 378.181 248.593C390.366 248.593 400.244 240.926 400.244 231.469C400.244 227.853 398.847 223.685 394.658 220.651L374.55 205.045V182.72C374.55 174.719 366.048 168.414 355.56 168.414H351.65C341.162 168.414 332.659 174.719 332.659 182.72V186.621H326.515V181.419C326.515 171.842 336.518 164.296 348.857 164.296H382.37C394.709 164.296 404.712 172.059 404.712 181.636V237.341C404.712 243.02 410.023 247.737 417 248.664V252.08H349.416C337.077 252.08 327.074 244.316 327.074 234.74ZM327.074 234.74V235.173M70.9805 179.902C70.9805 173.557 64.3536 168.414 56.179 168.414H32.1615L47.8008 180.552V237.774C47.8008 243.343 52.4288 247.959 59.251 248.79V252.08H5.90982V248.674C12.4562 247.592 17.3626 243.123 17.3626 237.774L17.36 168.414H2V164.296H17.36V152.808C17.36 141.316 29.3634 132 44.1703 132H95.5565V152.808H66.5121C66.5121 143.231 56.5093 135.468 44.1703 135.468C31.8312 135.468 21.8284 143.231 21.8284 152.808C21.8284 157.206 23.9377 161.221 27.4139 164.278H122.367C137.174 164.278 149.177 173.594 149.177 185.086V234.74C149.177 244.316 139.174 252.08 126.835 252.08H93.3223C80.9833 252.08 70.9805 244.316 70.9805 234.74V179.902ZM99.7456 167.981C87.4066 167.981 77.4038 175.744 77.4038 185.321C77.4038 188.214 78.3169 190.942 79.9317 193.34L103.097 211.319V227.804C103.097 238.817 107.348 247.745 112.592 247.745C117.836 247.745 122.087 239.684 122.087 228.671V185.321C122.087 175.744 112.085 167.981 99.7456 167.981Z" stroke="black" stroke-width="3"/>
<path d="M567.159 179.737V237.574C567.159 243.253 561.848 247.97 554.871 248.896V252.096H608.212V248.766C601.652 247.587 596.762 243.024 596.762 237.574V211.312L576.096 195.272C573.63 192.508 572.186 189.154 572.186 185.537C572.186 176.08 582.063 168.414 594.248 168.414C606.433 168.414 616.311 176.08 616.311 185.537H645.076V168.414C647.683 169.642 652.896 173.746 652.896 180.335V193.557H683.336V182.286C683.336 174.625 687.088 168.414 691.715 168.414C696.342 168.414 700.093 174.625 700.093 182.286V204.611L651.499 219.784V237.341C651.499 242.994 645.91 247.906 638.932 248.828V252.08H742.542V248.828C735.565 247.902 730.251 243.02 730.251 237.341V223.902H700.093V234.306C700.093 241.968 696.342 248.178 691.715 248.178C687.088 248.178 683.336 241.968 683.336 234.306V214.799L730.251 199.843L730.254 179.737C730.254 174.057 735.565 169.34 742.542 168.414V164.278H554.871V168.414C561.848 169.34 567.159 174.057 567.159 179.737ZM567.159 179.737V179.685M738.074 234.74V209.597L767.677 187.488V232.355C767.677 241.812 776.996 248.593 789.181 248.593C801.366 248.593 811.244 240.926 811.244 231.469C811.244 227.853 809.847 223.685 805.658 220.651L785.55 205.045V182.72C785.55 174.719 777.048 168.414 766.56 168.414H762.65C752.162 168.414 743.659 174.719 743.659 182.72V186.621H737.515V181.419C737.515 171.842 747.518 164.296 759.857 164.296H793.37C805.709 164.296 815.712 172.059 815.712 181.636V237.341C815.712 243.02 821.023 247.737 828 248.664V252.08H760.416C748.077 252.08 738.074 244.316 738.074 234.74ZM738.074 234.74V235.173M481.98 179.902C481.98 173.557 475.354 168.414 467.179 168.414H443.162L458.801 180.552V237.774C458.801 243.343 463.429 247.959 470.251 248.79V252.08H416.91V248.674C423.456 247.592 428.363 243.123 428.363 237.774L428.36 168.414H413V164.296H428.36V152.808C428.36 141.316 440.363 132 455.17 132H506.557V152.808H477.512C477.512 143.231 467.509 135.468 455.17 135.468C442.831 135.468 432.828 143.231 432.828 152.808C432.828 157.206 434.938 161.221 438.414 164.278H533.367C548.174 164.278 560.177 173.594 560.177 185.086V234.74C560.177 244.316 550.174 252.08 537.835 252.08H504.322C491.983 252.08 481.98 244.316 481.98 234.74V179.902ZM510.746 167.981C498.407 167.981 488.404 175.744 488.404 185.321C488.404 188.214 489.317 190.942 490.932 193.34L514.097 211.319V227.804C514.097 238.817 518.348 247.745 523.592 247.745C528.836 247.745 533.087 239.684 533.087 228.671V185.321C533.087 175.744 523.085 167.981 510.746 167.981Z" stroke="black" stroke-width="3"/>
<path d="M977.159 179.737V237.574C977.159 243.253 971.848 247.97 964.871 248.896V252.096H1018.21V248.766C1011.65 247.587 1006.76 243.024 1006.76 237.574V211.312L986.096 195.272C983.63 192.508 982.186 189.154 982.186 185.537C982.186 176.08 992.063 168.414 1004.25 168.414C1016.43 168.414 1026.31 176.08 1026.31 185.537H1055.08V168.414C1057.68 169.642 1062.9 173.746 1062.9 180.335V193.557H1093.34V182.286C1093.34 174.625 1097.09 168.414 1101.71 168.414C1106.34 168.414 1110.09 174.625 1110.09 182.286V204.611L1061.5 219.784V237.341C1061.5 242.994 1055.91 247.906 1048.93 248.828V252.08H1152.54V248.828C1145.56 247.902 1140.25 243.02 1140.25 237.341V223.902H1110.09V234.306C1110.09 241.968 1106.34 248.178 1101.71 248.178C1097.09 248.178 1093.34 241.968 1093.34 234.306V214.799L1140.25 199.843L1140.25 179.737C1140.25 174.057 1145.56 169.34 1152.54 168.414V164.278H964.871V168.414C971.848 169.34 977.159 174.057 977.159 179.737ZM977.159 179.737V179.685M1148.07 234.74V209.597L1177.68 187.488V232.355C1177.68 241.812 1187 248.593 1199.18 248.593C1211.37 248.593 1221.24 240.926 1221.24 231.469C1221.24 227.853 1219.85 223.685 1215.66 220.651L1195.55 205.045V182.72C1195.55 174.719 1187.05 168.414 1176.56 168.414H1172.65C1162.16 168.414 1153.66 174.719 1153.66 182.72V186.621H1147.52V181.419C1147.52 171.842 1157.52 164.296 1169.86 164.296H1203.37C1215.71 164.296 1225.71 172.059 1225.71 181.636V237.341C1225.71 243.02 1231.02 247.737 1238 248.664V252.08H1170.42C1158.08 252.08 1148.07 244.316 1148.07 234.74ZM1148.07 234.74V235.173M891.98 179.902C891.98 173.557 885.354 168.414 877.179 168.414H853.162L868.801 180.552V237.774C868.801 243.343 873.429 247.959 880.251 248.79V252.08H826.91V248.674C833.456 247.592 838.363 243.123 838.363 237.774L838.36 168.414H823V164.296H838.36V152.808C838.36 141.316 850.363 132 865.17 132H916.557V152.808H887.512C887.512 143.231 877.509 135.468 865.17 135.468C852.831 135.468 842.828 143.231 842.828 152.808C842.828 157.206 844.938 161.221 848.414 164.278H943.367C958.174 164.278 970.177 173.594 970.177 185.086V234.74C970.177 244.316 960.174 252.08 947.835 252.08H914.322C901.983 252.08 891.98 244.316 891.98 234.74V179.902ZM920.746 167.981C908.407 167.981 898.404 175.744 898.404 185.321C898.404 188.214 899.317 190.942 900.932 193.34L924.097 211.319V227.804C924.097 238.817 928.348 247.745 933.592 247.745C938.836 247.745 943.087 239.684 943.087 228.671V185.321C943.087 175.744 933.085 167.981 920.746 167.981Z" stroke="black" stroke-width="3"/>
<path d="M156.159 309.737V367.574C156.159 373.253 150.848 377.97 143.871 378.896V382.096H197.212V378.766C190.652 377.587 185.762 373.024 185.762 367.574V341.312L165.096 325.272C162.63 322.508 161.186 319.154 161.186 315.537C161.186 306.08 171.063 298.414 183.248 298.414C195.433 298.414 205.311 306.08 205.311 315.537H234.076V298.414C236.683 299.642 241.896 303.746 241.896 310.335V323.557H272.336V312.286C272.336 304.625 276.088 298.414 280.715 298.414C285.342 298.414 289.093 304.625 289.093 312.286V334.611L240.499 349.784V367.341C240.499 372.994 234.91 377.906 227.932 378.828V382.08H331.542V378.828C324.565 377.902 319.251 373.02 319.251 367.341V353.902H289.093V364.306C289.093 371.968 285.342 378.178 280.715 378.178C276.088 378.178 272.336 371.968 272.336 364.306V344.799L319.251 329.843L319.254 309.737C319.254 304.057 324.565 299.34 331.542 298.414V294.278H143.871V298.414C150.848 299.34 156.159 304.057 156.159 309.737ZM156.159 309.737V309.685M327.074 364.74V339.597L356.677 317.488V362.355C356.677 371.812 365.996 378.593 378.181 378.593C390.366 378.593 400.244 370.926 400.244 361.469C400.244 357.853 398.847 353.685 394.658 350.651L374.55 335.045V312.72C374.55 304.719 366.048 298.414 355.56 298.414H351.65C341.162 298.414 332.659 304.719 332.659 312.72V316.621H326.515V311.419C326.515 301.842 336.518 294.296 348.857 294.296H382.37C394.709 294.296 404.712 302.059 404.712 311.636V367.341C404.712 373.02 410.023 377.737 417 378.664V382.08H349.416C337.077 382.08 327.074 374.316 327.074 364.74ZM327.074 364.74V365.173M70.9805 309.902C70.9805 303.557 64.3536 298.414 56.179 298.414H32.1615L47.8008 310.552V367.774C47.8008 373.343 52.4288 377.959 59.251 378.79V382.08H5.90982V378.674C12.4562 377.592 17.3626 373.123 17.3626 367.774L17.36 298.414H2V294.296H17.36V282.808C17.36 271.316 29.3634 262 44.1703 262H95.5565V282.808H66.5121C66.5121 273.231 56.5093 265.468 44.1703 265.468C31.8312 265.468 21.8284 273.231 21.8284 282.808C21.8284 287.206 23.9377 291.221 27.4139 294.278H122.367C137.174 294.278 149.177 303.594 149.177 315.086V364.74C149.177 374.316 139.174 382.08 126.835 382.08H93.3223C80.9833 382.08 70.9805 374.316 70.9805 364.74V309.902ZM99.7456 297.981C87.4066 297.981 77.4038 305.744 77.4038 315.321C77.4038 318.214 78.3169 320.942 79.9317 323.34L103.097 341.319V357.804C103.097 368.817 107.348 377.745 112.592 377.745C117.836 377.745 122.087 369.684 122.087 358.671V315.321C122.087 305.744 112.085 297.981 99.7456 297.981Z" stroke="black" stroke-width="3"/>
<path d="M567.159 309.737V367.574C567.159 373.253 561.848 377.97 554.871 378.896V382.096H608.212V378.766C601.652 377.587 596.762 373.024 596.762 367.574V341.312L576.096 325.272C573.63 322.508 572.186 319.154 572.186 315.537C572.186 306.08 582.063 298.414 594.248 298.414C606.433 298.414 616.311 306.08 616.311 315.537H645.076V298.414C647.683 299.642 652.896 303.746 652.896 310.335V323.557H683.336V312.286C683.336 304.625 687.088 298.414 691.715 298.414C696.342 298.414 700.093 304.625 700.093 312.286V334.611L651.499 349.784V367.341C651.499 372.994 645.91 377.906 638.932 378.828V382.08H742.542V378.828C735.565 377.902 730.251 373.02 730.251 367.341V353.902H700.093V364.306C700.093 371.968 696.342 378.178 691.715 378.178C687.088 378.178 683.336 371.968 683.336 364.306V344.799L730.251 329.843L730.254 309.737C730.254 304.057 735.565 299.34 742.542 298.414V294.278H554.871V298.414C561.848 299.34 567.159 304.057 567.159 309.737ZM567.159 309.737V309.685M738.074 364.74V339.597L767.677 317.488V362.355C767.677 371.812 776.996 378.593 789.181 378.593C801.366 378.593 811.244 370.926 811.244 361.469C811.244 357.853 809.847 353.685 805.658 350.651L785.55 335.045V312.72C785.55 304.719 777.048 298.414 766.56 298.414H762.65C752.162 298.414 743.659 304.719 743.659 312.72V316.621H737.515V311.419C737.515 301.842 747.518 294.296 759.857 294.296H793.37C805.709 294.296 815.712 302.059 815.712 311.636V367.341C815.712 373.02 821.023 377.737 828 378.664V382.08H760.416C748.077 382.08 738.074 374.316 738.074 364.74ZM738.074 364.74V365.173M481.98 309.902C481.98 303.557 475.354 298.414 467.179 298.414H443.162L458.801 310.552V367.774C458.801 373.343 463.429 377.959 470.251 378.79V382.08H416.91V378.674C423.456 377.592 428.363 373.123 428.363 367.774L428.36 298.414H413V294.296H428.36V282.808C428.36 271.316 440.363 262 455.17 262H506.557V282.808H477.512C477.512 273.231 467.509 265.468 455.17 265.468C442.831 265.468 432.828 273.231 432.828 282.808C432.828 287.206 434.938 291.221 438.414 294.278H533.367C548.174 294.278 560.177 303.594 560.177 315.086V364.74C560.177 374.316 550.174 382.08 537.835 382.08H504.322C491.983 382.08 481.98 374.316 481.98 364.74V309.902ZM510.746 297.981C498.407 297.981 488.404 305.744 488.404 315.321C488.404 318.214 489.317 320.942 490.932 323.34L514.097 341.319V357.804C514.097 368.817 518.348 377.745 523.592 377.745C528.836 377.745 533.087 369.684 533.087 358.671V315.321C533.087 305.744 523.085 297.981 510.746 297.981Z" stroke="black" stroke-width="3"/>
<path d="M977.159 309.737V367.574C977.159 373.253 971.848 377.97 964.871 378.896V382.096H1018.21V378.766C1011.65 377.587 1006.76 373.024 1006.76 367.574V341.312L986.096 325.272C983.63 322.508 982.186 319.154 982.186 315.537C982.186 306.08 992.063 298.414 1004.25 298.414C1016.43 298.414 1026.31 306.08 1026.31 315.537H1055.08V298.414C1057.68 299.642 1062.9 303.746 1062.9 310.335V323.557H1093.34V312.286C1093.34 304.625 1097.09 298.414 1101.71 298.414C1106.34 298.414 1110.09 304.625 1110.09 312.286V334.611L1061.5 349.784V367.341C1061.5 372.994 1055.91 377.906 1048.93 378.828V382.08H1152.54V378.828C1145.56 377.902 1140.25 373.02 1140.25 367.341V353.902H1110.09V364.306C1110.09 371.968 1106.34 378.178 1101.71 378.178C1097.09 378.178 1093.34 371.968 1093.34 364.306V344.799L1140.25 329.843L1140.25 309.737C1140.25 304.057 1145.56 299.34 1152.54 298.414V294.278H964.871V298.414C971.848 299.34 977.159 304.057 977.159 309.737ZM977.159 309.737V309.685M1148.07 364.74V339.597L1177.68 317.488V362.355C1177.68 371.812 1187 378.593 1199.18 378.593C1211.37 378.593 1221.24 370.926 1221.24 361.469C1221.24 357.853 1219.85 353.685 1215.66 350.651L1195.55 335.045V312.72C1195.55 304.719 1187.05 298.414 1176.56 298.414H1172.65C1162.16 298.414 1153.66 304.719 1153.66 312.72V316.621H1147.52V311.419C1147.52 301.842 1157.52 294.296 1169.86 294.296H1203.37C1215.71 294.296 1225.71 302.059 1225.71 311.636V367.341C1225.71 373.02 1231.02 377.737 1238 378.664V382.08H1170.42C1158.08 382.08 1148.07 374.316 1148.07 364.74ZM1148.07 364.74V365.173M891.98 309.902C891.98 303.557 885.354 298.414 877.179 298.414H853.162L868.801 310.552V367.774C868.801 373.343 873.429 377.959 880.251 378.79V382.08H826.91V378.674C833.456 377.592 838.363 373.123 838.363 367.774L838.36 298.414H823V294.296H838.36V282.808C838.36 271.316 850.363 262 865.17 262H916.557V282.808H887.512C887.512 273.231 877.509 265.468 865.17 265.468C852.831 265.468 842.828 273.231 842.828 282.808C842.828 287.206 844.938 291.221 848.414 294.278H943.367C958.174 294.278 970.177 303.594 970.177 315.086V364.74C970.177 374.316 960.174 382.08 947.835 382.08H914.322C901.983 382.08 891.98 374.316 891.98 364.74V309.902ZM920.746 297.981C908.407 297.981 898.404 305.744 898.404 315.321C898.404 318.214 899.317 320.942 900.932 323.34L924.097 341.319V357.804C924.097 368.817 928.348 377.745 933.592 377.745C938.836 377.745 943.087 369.684 943.087 358.671V315.321C943.087 305.744 933.085 297.981 920.746 297.981Z" stroke="black" stroke-width="3"/>
</svg>
