<svg width="1240" height="124" viewBox="0 0 1240 124" fill="none" xmlns="http://www.w3.org/2000/svg">
<path d="M156.159 49.7367V107.574C156.159 113.253 150.848 117.97 143.871 118.896V122.096H197.212V118.766C190.652 117.587 185.762 113.024 185.762 107.574V81.3117L165.096 65.2722C162.63 62.5081 161.186 59.1536 161.186 55.5374C161.186 46.0804 171.063 38.4141 183.248 38.4141C195.433 38.4141 205.311 46.0804 205.311 55.5374H234.076V38.4141C236.683 39.6423 241.896 43.7461 241.896 50.3353V63.5571H272.336V52.2861C272.336 44.6248 276.088 38.4141 280.715 38.4141C285.342 38.4141 289.093 44.6248 289.093 52.2861V74.6114L240.499 89.7839V107.341C240.499 112.994 234.91 117.906 227.932 118.828V122.08H331.542V118.828C324.565 117.902 319.251 113.02 319.251 107.341V93.9022H289.093V104.306C289.093 111.968 285.342 118.178 280.715 118.178C276.088 118.178 272.336 111.968 272.336 104.306V84.7987L319.251 69.8429L319.254 49.7367C319.254 44.0572 324.565 39.3403 331.542 38.4139V34.2777H143.871V38.4139C150.848 39.3403 156.159 44.0572 156.159 49.7367ZM156.159 49.7367V49.6851M327.074 104.74V79.5966L356.677 57.4881V102.355C356.677 111.812 365.996 118.593 378.181 118.593C390.366 118.593 400.244 110.926 400.244 101.469C400.244 97.8531 398.847 93.6854 394.658 90.6509L374.55 75.0449V52.7196C374.55 44.7189 366.048 38.4141 355.56 38.4141H351.65C341.162 38.4141 332.659 44.7189 332.659 52.7196V56.6211H326.515V51.4191C326.515 41.8425 336.518 34.2958 348.857 34.2958H382.37C394.709 34.2958 404.712 42.0592 404.712 51.6358V107.341C404.712 113.02 410.023 117.737 417 118.664C423.546 117.581 428.363 113.123 428.363 107.774L428.36 38.4141H413V34.2958H428.36V22.808C428.36 11.3161 440.363 2 455.17 2H506.557V22.808H477.512C477.512 13.2314 467.509 5.46801 455.17 5.46801C442.831 5.46801 432.828 13.2314 432.828 22.808C432.828 27.2057 434.938 31.221 438.414 34.2777H533.367C548.174 34.2777 560.177 43.5937 560.177 55.0856V104.74C560.177 114.316 550.174 122.08 537.835 122.08H504.322C491.983 122.08 481.98 114.316 481.98 104.74V49.9018C481.98 43.5573 475.354 38.4141 467.179 38.4141H443.161L458.801 50.5521V107.774C458.801 113.343 463.429 117.959 470.251 118.79V122.08H416.91M327.074 104.74C327.074 114.316 337.077 122.08 349.416 122.08H417M327.074 104.74V105.173M567.159 49.7367V107.574C567.159 113.253 561.848 117.97 554.871 118.896V122.096H608.212V118.766C601.652 117.587 596.762 113.024 596.762 107.574V81.3117L576.096 65.2722C573.63 62.5081 572.186 59.1536 572.186 55.5374C572.186 46.0804 582.063 38.4141 594.248 38.4141C606.433 38.4141 616.311 46.0804 616.311 55.5374H645.076V38.4141C647.683 39.6423 652.896 43.7461 652.896 50.3353V63.5571H683.336V52.2861C683.336 44.6248 687.088 38.4141 691.715 38.4141C696.342 38.4141 700.093 44.6248 700.093 52.2861V74.6114L651.499 89.7839V107.341C651.499 112.994 645.909 117.906 638.932 118.828V122.08H742.542V118.828C735.565 117.902 730.251 113.02 730.251 107.341V93.9022H700.093V104.306C700.093 111.968 696.342 118.178 691.715 118.178C687.088 118.178 683.336 111.968 683.336 104.306V84.7987L730.251 69.8429L730.254 49.7367C730.254 44.0572 735.565 39.3403 742.542 38.4139V34.2777H554.871V38.4139C561.848 39.3403 567.159 44.0572 567.159 49.7367ZM567.159 49.7367V49.6851M738.074 104.74V79.5966L767.677 57.4881V102.355C767.677 111.812 776.996 118.593 789.181 118.593C801.366 118.593 811.244 110.926 811.244 101.469C811.244 97.8531 809.847 93.6854 805.658 90.6509L785.55 75.0449V52.7196C785.55 44.7189 777.048 38.4141 766.56 38.4141H762.65C752.162 38.4141 743.659 44.7189 743.659 52.7196V56.6211H737.515V51.4191C737.515 41.8425 747.518 34.2958 759.857 34.2958H793.37C805.709 34.2958 815.712 42.0592 815.712 51.6358V107.341C815.712 112.866 820.738 117.48 827.435 118.58C833.717 117.351 838.363 112.979 838.363 107.774L838.36 38.4141H823V34.2958H838.36V22.808C838.36 11.3161 850.363 2 865.17 2H916.557V22.808H887.512C887.512 13.2314 877.509 5.46801 865.17 5.46801C852.831 5.46801 842.828 13.2314 842.828 22.808C842.828 27.2057 844.938 31.221 848.414 34.2777H943.367C958.174 34.2777 970.177 43.5937 970.177 55.0856V104.74C970.177 114.316 960.174 122.08 947.835 122.08H914.322C901.983 122.08 891.98 114.316 891.98 104.74V49.9018C891.98 43.5573 885.354 38.4141 877.179 38.4141H853.161L868.801 50.5521V107.774C868.801 113.343 873.429 117.959 880.251 118.79V122.08H826.91M738.074 104.74C738.074 114.316 748.077 122.08 760.416 122.08H828M738.074 104.74V105.173M977.159 49.7367V107.574C977.159 113.253 971.848 117.97 964.871 118.896V122.096H1018.21V118.766C1011.65 117.587 1006.76 113.024 1006.76 107.574V81.3117L986.096 65.2722C983.63 62.5081 982.186 59.1536 982.186 55.5374C982.186 46.0804 992.063 38.4141 1004.25 38.4141C1016.43 38.4141 1026.31 46.0804 1026.31 55.5374H1055.08V38.4141C1057.68 39.6423 1062.9 43.7461 1062.9 50.3353V63.5571H1093.34V52.2861C1093.34 44.6248 1097.09 38.4141 1101.71 38.4141C1106.34 38.4141 1110.09 44.6248 1110.09 52.2861V74.6114L1061.5 89.7839V107.341C1061.5 112.994 1055.91 117.906 1048.93 118.828V122.08H1152.54V118.828C1145.56 117.902 1140.25 113.02 1140.25 107.341V93.9022H1110.09V104.306C1110.09 111.968 1106.34 118.178 1101.71 118.178C1097.09 118.178 1093.34 111.968 1093.34 104.306V84.7987L1140.25 69.8429L1140.25 49.7367C1140.25 44.0572 1145.56 39.3403 1152.54 38.4139V34.2777H964.871V38.4139C971.848 39.3403 977.159 44.0572 977.159 49.7367ZM977.159 49.7367V49.6851M1148.07 104.74V79.5966L1177.68 57.4881V102.355C1177.68 111.812 1187 118.593 1199.18 118.593C1211.37 118.593 1221.24 110.926 1221.24 101.469C1221.24 97.8531 1219.85 93.6854 1215.66 90.6509L1195.55 75.0449V52.7196C1195.55 44.7189 1187.05 38.4141 1176.56 38.4141H1172.65C1162.16 38.4141 1153.66 44.7189 1153.66 52.7196V56.6211H1147.52V51.4191C1147.52 41.8425 1157.52 34.2958 1169.86 34.2958H1203.37C1215.71 34.2958 1225.71 42.0592 1225.71 51.6358V107.341C1225.71 113.02 1231.02 117.737 1238 118.664V122.08H1170.42C1158.08 122.08 1148.07 114.316 1148.07 104.74ZM1148.07 104.74V105.173M70.9805 49.9018C70.9805 43.5573 64.3536 38.4141 56.179 38.4141H32.1615L47.8008 50.5521V107.774C47.8008 113.343 52.4288 117.959 59.251 118.79V122.08H5.90982V118.674C12.4562 117.592 17.3626 113.123 17.3626 107.774L17.36 38.4141H2V34.2958H17.36V22.808C17.36 11.3161 29.3634 2 44.1703 2H95.5565V22.808H66.5121C66.5121 13.2314 56.5093 5.46801 44.1703 5.46801C31.8312 5.46801 21.8284 13.2314 21.8284 22.808C21.8284 27.2057 23.9377 31.221 27.4139 34.2777H122.367C137.174 34.2777 149.177 43.5937 149.177 55.0856V104.74C149.177 114.316 139.174 122.08 126.835 122.08H93.3223C80.9833 122.08 70.9805 114.316 70.9805 104.74V49.9018ZM99.7456 37.9806C87.4066 37.9806 77.4038 45.744 77.4038 55.3206C77.4038 58.2141 78.3169 60.942 79.9317 63.3404L103.097 81.3194V97.8037C103.097 108.817 107.348 117.745 112.592 117.745C117.836 117.745 122.087 109.684 122.087 98.6707V55.3206C122.087 45.744 112.085 37.9806 99.7456 37.9806ZM510.746 37.9806C498.407 37.9806 488.404 45.744 488.404 55.3206C488.404 58.2141 489.317 60.942 490.932 63.3404L514.097 81.3194V97.8037C514.097 108.817 518.348 117.745 523.592 117.745C528.836 117.745 533.087 109.684 533.087 98.6707V55.3206C533.087 45.744 523.085 37.9806 510.746 37.9806ZM920.746 37.9806C908.407 37.9806 898.404 45.744 898.404 55.3206C898.404 58.2141 899.317 60.942 900.932 63.3404L924.097 81.3194V97.8037C924.097 108.817 928.348 117.745 933.592 117.745C938.836 117.745 943.087 109.684 943.087 98.6707V55.3206C943.087 45.744 933.085 37.9806 920.746 37.9806Z" stroke="black" stroke-width="3"/>
</svg>
