<svg width="372" height="124" viewBox="0 0 372 124" fill="none" xmlns="http://www.w3.org/2000/svg">
<path d="M89.0256 32.7192L186 81L282.974 32.7192L280.192 51.0739L372 0L298.077 27.931L300.462 10.3744L186 67.0345L71.5385 10.3744L73.9231 27.931L0 0L91.8077 51.0739L89.0256 32.7192Z" fill="#0496FF"/>
<path d="M185.996 83.4609L190.569 97.4664H205.37L193.396 106.122L197.969 120.128L185.996 111.472L174.022 120.128L178.596 106.122L166.622 97.4664H181.422L185.996 83.4609Z" fill="#0496FF"/>
<path d="M123.286 51.666L127.052 63.2H139.241L129.38 70.3283L133.146 81.8623L123.286 74.7339L113.425 81.8623L117.192 70.3283L107.331 63.2H119.519L123.286 51.666Z" fill="#0496FF"/>
<path d="M248.706 51.666L252.472 63.2H264.661L254.8 70.3283L258.566 81.8623L248.706 74.7339L238.845 81.8623L242.611 70.3283L232.751 63.2H244.939L248.706 51.666Z" fill="#0496FF"/>
<path d="M88.3968 36.5059V17.3119H81V13.7012H88.3968C88.4223 12.713 88.651 11.8641 89.0832 11.1547C89.5407 10.4198 90.2905 9.82438 91.3327 9.36828C92.3749 8.91219 93.7856 8.57012 95.5649 8.34207C97.3442 8.11402 99.5557 8 102.199 8H115.315V11.3067H102.771C101.754 11.3067 101.043 11.4967 100.636 11.8768C100.229 12.2315 100.026 12.8017 100.026 13.5872V13.7012H115.315V17.3119H100.026V36.5059H88.3968ZM146.453 37H135.014C131.379 37 128.354 36.7847 125.94 36.3539C123.55 35.8978 121.644 35.2389 120.22 34.3775C118.822 33.4905 117.844 32.401 117.285 31.1088C116.725 29.7912 116.446 28.2835 116.446 26.5858V23.6212C116.446 21.9236 116.725 20.4286 117.285 19.1363C117.844 17.8187 118.822 16.7291 120.22 15.8676C121.644 14.9808 123.55 14.322 125.94 13.8912C128.354 13.4351 131.379 13.2071 135.014 13.2071H146.453C150.087 13.2071 153.099 13.4351 155.489 13.8912C157.904 14.322 159.81 14.9808 161.208 15.8676C162.631 16.7291 163.623 17.8187 164.182 19.1363C164.741 20.4286 165.021 21.9236 165.021 23.6212V26.5858C165.021 28.2835 164.741 29.7912 164.182 31.1088C163.623 32.401 162.631 33.4905 161.208 34.3775C159.81 35.2389 157.904 35.8978 155.489 36.3539C153.099 36.7847 150.087 37 146.453 37ZM134.9 33.3893H146.567C148.778 33.3893 150.342 32.9204 151.257 31.983C152.172 31.0455 152.629 29.5505 152.629 27.498V22.671C152.629 20.6439 152.172 19.1616 151.257 18.2241C150.342 17.2866 148.778 16.8178 146.567 16.8178H134.9C132.688 16.8178 131.125 17.2866 130.21 18.2241C129.295 19.1616 128.837 20.6439 128.837 22.671V27.498C128.837 29.5505 129.295 31.0455 130.21 31.983C131.125 32.9204 132.688 33.3893 134.9 33.3893ZM170.542 21.0367C170.542 19.9218 170.732 18.9209 171.113 18.0341C171.52 17.1219 172.245 16.3491 173.287 15.7156C174.354 15.0821 175.803 14.588 177.633 14.2333C179.489 13.8785 181.84 13.7012 184.687 13.7012H198.985V17.3119H189.034C186.492 17.3119 184.712 17.6033 183.696 18.1861C182.679 18.7689 182.171 19.7824 182.171 21.2267V36.5059H170.542V21.0367ZM244.222 36.5059H207.161C205.103 36.5059 203.616 36.1891 202.7 35.5557C201.811 34.8968 201.366 34.0354 201.366 32.9712C201.366 31.983 201.747 31.1088 202.51 30.3486C203.272 29.5885 204.721 28.7776 206.856 27.9161L228.704 18.9843C228.983 18.8829 229.2 18.7689 229.352 18.6422C229.505 18.5155 229.581 18.3255 229.581 18.0721C229.581 17.7934 229.466 17.6033 229.238 17.502C229.034 17.3753 228.755 17.3119 228.399 17.3119H201.747V13.7012H237.893C240.002 13.7012 241.616 13.9546 242.735 14.4613C243.879 14.9681 244.451 15.8676 244.451 17.1599C244.451 18.1988 243.993 19.0983 243.078 19.8585C242.188 20.6186 240.689 21.4421 238.579 22.329L216.846 31.4128C216.541 31.5396 216.299 31.6662 216.122 31.7929C215.944 31.9197 215.855 32.0717 215.855 32.249C215.855 32.5023 215.956 32.6798 216.16 32.7811C216.388 32.8571 216.668 32.8952 216.999 32.8952H244.222V36.5059ZM274.376 13.7012C277.783 13.7012 280.566 13.8532 282.726 14.1573C284.886 14.4613 286.577 14.9301 287.797 15.5636C289.017 16.1717 289.856 16.9445 290.314 17.882C290.771 18.8196 291 19.9218 291 21.1887V36.5059H258.82C256.761 36.5059 255.032 36.4046 253.634 36.2018C252.262 35.9738 251.169 35.657 250.355 35.2516C249.542 34.8463 248.97 34.3394 248.64 33.7313C248.309 33.0979 248.144 32.3883 248.144 31.6029C248.144 30.3614 248.792 29.2211 250.089 28.1822C251.385 27.1432 253.38 26.1298 256.075 25.1415L277.007 17.464C276.473 17.4133 275.825 17.3753 275.062 17.3499C274.3 17.3246 273.385 17.3119 272.317 17.3119H248.868V13.7012H274.376ZM265.759 32.8952H279.562V20.8087C279.562 20.7073 279.562 20.6186 279.562 20.5426C279.562 20.4412 279.562 20.3526 279.562 20.2765L265.149 25.9017C263.802 26.4338 262.849 27.0167 262.29 27.6501C261.756 28.2582 261.489 28.9931 261.489 29.8545C261.489 30.792 261.819 31.5396 262.48 32.097C263.166 32.6291 264.259 32.8952 265.759 32.8952Z" fill="black"/>
</svg>
